<svg width="180" height="180" viewBox="0 0 180 180" fill="none" xmlns="http://www.w3.org/2000/svg">
<rect width="180" height="180" fill="#010323"/>
<path d="M38.9016 160C37.4349 160 36.2349 159.533 35.3016 158.6C34.3682 157.667 33.9016 156.467 33.9016 155V25C33.9016 23.5333 34.3682 22.3333 35.3016 21.4C36.2349 20.4667 37.4349 20 38.9016 20H89.1016C102.435 20 113.568 22.1333 122.502 26.4C131.435 30.5333 138.235 36.6667 142.902 44.8C147.702 52.8 150.235 62.7333 150.502 74.6C150.635 80.4667 150.702 85.6 150.702 90C150.702 94.4 150.635 99.4667 150.502 105.2C150.102 117.6 147.635 127.867 143.102 136C138.568 144.133 131.902 150.2 123.102 154.2C114.302 158.067 103.302 160 90.1016 160H38.9016ZM65.7016 134.2H89.1016C95.7682 134.2 101.235 133.2 105.502 131.2C109.768 129.2 112.902 126.067 114.902 121.8C117.035 117.4 118.168 111.733 118.302 104.8C118.435 100.933 118.502 97.4667 118.502 94.4C118.635 91.3333 118.635 88.2667 118.502 85.2C118.502 82.1333 118.435 78.7333 118.302 75C118.035 65 115.435 57.6667 110.502 53C105.702 48.2 98.2349 45.8 88.1016 45.8H65.7016V134.2Z" fill="url(#paint0_linear_50_5)"/>
<defs>
<linearGradient id="paint0_linear_50_5" x1="20" y1="90" x2="160" y2="90" gradientUnits="userSpaceOnUse">
<stop stop-color="#64CEF7"/>
<stop offset="1" stop-color="#9C6AFF"/>
</linearGradient>
</defs>
</svg>
