<svg width="980" height="194" viewBox="0 0 980 194" fill="none" xmlns="http://www.w3.org/2000/svg">
<path d="M20.1516 173C18.6849 173 17.4849 172.533 16.5516 171.6C15.6182 170.667 15.1516 169.467 15.1516 168V38C15.1516 36.5333 15.6182 35.3333 16.5516 34.4C17.4849 33.4667 18.6849 33 20.1516 33H70.3516C83.6849 33 94.8182 35.1333 103.752 39.4C112.685 43.5333 119.485 49.6667 124.152 57.8C128.952 65.8 131.485 75.7333 131.752 87.6C131.885 93.4667 131.952 98.6 131.952 103C131.952 107.4 131.885 112.467 131.752 118.2C131.352 130.6 128.885 140.867 124.352 149C119.818 157.133 113.152 163.2 104.352 167.2C95.5516 171.067 84.5516 173 71.3516 173H20.1516ZM46.9516 147.2H70.3516C77.0182 147.2 82.4849 146.2 86.7516 144.2C91.0182 142.2 94.1516 139.067 96.1516 134.8C98.2849 130.4 99.4182 124.733 99.5516 117.8C99.6849 113.933 99.7516 110.467 99.7516 107.4C99.8849 104.333 99.8849 101.267 99.7516 98.2C99.7516 95.1333 99.6849 91.7333 99.5516 88C99.2849 78 96.6849 70.6667 91.7516 66C86.9516 61.2 79.4849 58.8 69.3516 58.8H46.9516V147.2ZM161.948 173C160.482 173 159.282 172.533 158.348 171.6C157.415 170.667 156.948 169.467 156.948 168V38C156.948 36.5333 157.415 35.3333 158.348 34.4C159.282 33.4667 160.482 33 161.948 33H184.548C186.015 33 187.215 33.4667 188.148 34.4C189.082 35.3333 189.548 36.5333 189.548 38V168C189.548 169.467 189.082 170.667 188.148 171.6C187.215 172.533 186.015 173 184.548 173H161.948ZM259.458 173C257.324 173 255.591 172.467 254.258 171.4C253.058 170.2 252.191 168.8 251.658 167.2L209.658 39C209.524 38.3333 209.458 37.7333 209.458 37.2C209.458 36.1333 209.858 35.2 210.658 34.4C211.458 33.4667 212.458 33 213.658 33H234.658C236.658 33 238.191 33.6 239.258 34.8C240.458 35.8667 241.191 36.8667 241.458 37.8L272.658 135.6L303.658 37.8C304.058 36.8667 304.791 35.8667 305.858 34.8C306.924 33.6 308.458 33 310.458 33H331.458C332.658 33 333.658 33.4667 334.458 34.4C335.258 35.2 335.658 36.1333 335.658 37.2C335.658 37.7333 335.591 38.3333 335.458 39L293.458 167.2C293.058 168.8 292.191 170.2 290.858 171.4C289.658 172.467 287.924 173 285.658 173H259.458ZM360.581 173C359.115 173 357.915 172.533 356.981 171.6C356.048 170.667 355.581 169.467 355.581 168V38C355.581 36.5333 356.048 35.3333 356.981 34.4C357.915 33.4667 359.115 33 360.581 33H451.181C452.648 33 453.848 33.4667 454.781 34.4C455.715 35.3333 456.181 36.5333 456.181 38V54C456.181 55.3333 455.715 56.4667 454.781 57.4C453.848 58.3333 452.648 58.8 451.181 58.8H386.381V90.2H446.781C448.248 90.2 449.448 90.6667 450.381 91.6C451.315 92.5333 451.781 93.7333 451.781 95.2V110C451.781 111.333 451.315 112.467 450.381 113.4C449.448 114.333 448.248 114.8 446.781 114.8H386.381V147.2H452.781C454.248 147.2 455.448 147.667 456.381 148.6C457.315 149.533 457.781 150.733 457.781 152.2V168C457.781 169.467 457.315 170.667 456.381 171.6C455.448 172.533 454.248 173 452.781 173H360.581ZM486.558 173C485.091 173 483.891 172.533 482.958 171.6C482.024 170.667 481.558 169.467 481.558 168V38C481.558 36.5333 482.024 35.3333 482.958 34.4C483.891 33.4667 485.091 33 486.558 33H539.558C556.224 33 569.358 36.8667 578.958 44.6C588.558 52.2 593.358 63.2 593.358 77.6C593.358 87.3333 591.024 95.4667 586.358 102C581.691 108.533 575.424 113.4 567.558 116.6L595.758 166.6C596.158 167.4 596.358 168.133 596.358 168.8C596.358 169.867 595.958 170.867 595.158 171.8C594.358 172.6 593.358 173 592.158 173H569.958C567.558 173 565.758 172.4 564.558 171.2C563.358 169.867 562.491 168.667 561.958 167.6L537.558 121.8H513.358V168C513.358 169.467 512.891 170.667 511.958 171.6C511.024 172.533 509.824 173 508.358 173H486.558ZM513.358 96.4H538.958C546.291 96.4 551.691 94.7333 555.158 91.4C558.758 88.0667 560.558 83.4 560.558 77.4C560.558 71.4 558.824 66.6667 555.358 63.2C551.891 59.7333 546.424 58 538.958 58H513.358V96.4ZM668.286 175C655.486 175 644.753 173.133 636.086 169.4C627.553 165.667 621.086 160.8 616.686 154.8C612.286 148.8 609.953 142.4 609.686 135.6C609.686 134.533 610.086 133.6 610.886 132.8C611.686 131.867 612.686 131.4 613.886 131.4H635.286C637.019 131.4 638.353 131.8 639.286 132.6C640.219 133.267 641.086 134.133 641.886 135.2C642.819 137.467 644.286 139.667 646.286 141.8C648.419 143.933 651.286 145.733 654.886 147.2C658.486 148.533 662.953 149.2 668.286 149.2C676.953 149.2 683.419 147.8 687.686 145C692.086 142.2 694.286 138.4 694.286 133.6C694.286 130.133 693.086 127.333 690.686 125.2C688.419 123.067 684.753 121.133 679.686 119.4C674.753 117.667 668.153 115.8 659.886 113.8C649.886 111.667 641.353 108.933 634.286 105.6C627.353 102.133 622.086 97.7333 618.486 92.4C615.019 86.9333 613.286 80.2 613.286 72.2C613.286 64.2 615.486 57.1333 619.886 51C624.286 44.7333 630.486 39.8667 638.486 36.4C646.486 32.8 656.019 31 667.086 31C676.019 31 683.886 32.2 690.686 34.6C697.619 37 703.353 40.1333 707.886 44C712.553 47.8667 716.086 52 718.486 56.4C720.886 60.8 722.153 65.0667 722.286 69.2C722.286 70.2667 721.886 71.2667 721.086 72.2C720.286 73 719.286 73.4 718.086 73.4H695.686C694.353 73.4 693.153 73.1333 692.086 72.6C691.019 72.0667 690.153 71.1333 689.486 69.8C688.686 66.3333 686.286 63.3333 682.286 60.8C678.419 58.1333 673.353 56.8 667.086 56.8C660.553 56.8 655.353 58 651.486 60.4C647.753 62.8 645.886 66.4667 645.886 71.4C645.886 74.6 646.819 77.3333 648.686 79.6C650.686 81.7333 653.953 83.6667 658.486 85.4C663.153 87 669.286 88.8 676.886 90.8C688.619 93.2 698.153 96.0667 705.486 99.4C712.819 102.733 718.219 107.067 721.686 112.4C725.153 117.6 726.886 124.2 726.886 132.2C726.886 141.133 724.353 148.8 719.286 155.2C714.353 161.6 707.486 166.533 698.686 170C690.019 173.333 679.886 175 668.286 175ZM753.355 173C751.888 173 750.688 172.533 749.755 171.6C748.821 170.667 748.355 169.467 748.355 168V38C748.355 36.5333 748.821 35.3333 749.755 34.4C750.688 33.4667 751.888 33 753.355 33H775.955C777.421 33 778.621 33.4667 779.555 34.4C780.488 35.3333 780.955 36.5333 780.955 38V168C780.955 169.467 780.488 170.667 779.555 171.6C778.621 172.533 777.421 173 775.955 173H753.355ZM815.464 173C813.997 173 812.797 172.533 811.864 171.6C810.931 170.667 810.464 169.467 810.464 168V38C810.464 36.5333 810.931 35.3333 811.864 34.4C812.797 33.4667 813.997 33 815.464 33H904.664C906.131 33 907.331 33.4667 908.264 34.4C909.197 35.3333 909.664 36.5333 909.664 38V55C909.664 56.4667 909.197 57.6667 908.264 58.6C907.331 59.5333 906.131 60 904.664 60H841.664V93.8H900.664C902.131 93.8 903.331 94.2667 904.264 95.2C905.197 96.1333 905.664 97.3333 905.664 98.8V115.8C905.664 117.133 905.197 118.267 904.264 119.2C903.331 120.133 902.131 120.6 900.664 120.6H841.664V168C841.664 169.467 841.197 170.667 840.264 171.6C839.331 172.533 838.131 173 836.664 173H815.464ZM937.339 173C935.872 173 934.672 172.533 933.739 171.6C932.806 170.667 932.339 169.467 932.339 168V38C932.339 36.5333 932.806 35.3333 933.739 34.4C934.672 33.4667 935.872 33 937.339 33H959.939C961.406 33 962.606 33.4667 963.539 34.4C964.472 35.3333 964.939 36.5333 964.939 38V168C964.939 169.467 964.472 170.667 963.539 171.6C962.606 172.533 961.406 173 959.939 173H937.339Z" fill="url(#paint0_linear_119_10)"/>
<defs>
<linearGradient id="paint0_linear_119_10" x1="0" y1="104" x2="980" y2="104" gradientUnits="userSpaceOnUse">
<stop stop-color="#64CEF7"/>
<stop offset="1" stop-color="#9C6AFF"/>
</linearGradient>
</defs>
</svg>
