<svg width="815" height="193" viewBox="0 0 815 193" fill="none" xmlns="http://www.w3.org/2000/svg">
<mask id="path-1-outside-1_103_130" maskUnits="userSpaceOnUse" x="4" y="15" width="763" height="155" fill="black">
<rect fill="white" x="4" y="15" width="763" height="155"/>
<path d="M88.5938 150.344C79.0625 160.031 68.125 164.875 55.7812 164.875C43.5938 164.875 32.9688 160.578 23.9062 151.984C14.2188 142.297 9.29688 129.641 9.14062 114.016C9.14062 98.7031 14.0625 86.125 23.9062 76.2812C32.8125 67.375 43.4375 63 55.7812 63.1562C68.125 63.1562 79.0625 68 88.5938 77.6875V30.5781C88.5938 28.0781 89.375 26.0469 90.9375 24.4844C92.6562 22.7656 94.7656 21.9062 97.2656 21.9062C99.7656 21.9062 101.797 22.7656 103.359 24.4844C105.078 26.0469 105.938 28.0781 105.938 30.5781V155.266C105.938 157.609 105.078 159.641 103.359 161.359C101.797 163.078 99.7656 163.938 97.2656 163.938C94.7656 163.938 92.6562 163.078 90.9375 161.359C89.375 159.641 88.5938 157.609 88.5938 155.266V150.344ZM88.5938 93.8594C79.8438 84.1719 69.6875 79.4062 58.125 79.5625C43.4375 79.5625 33.8281 86.0469 29.2969 99.0156C27.7344 103.391 26.875 108.391 26.7188 114.016C26.7188 124.953 29.6875 133.625 35.625 140.031C41.0938 145.812 48.5938 148.625 58.125 148.469C69.6875 148.469 79.8438 143.703 88.5938 134.172V93.8594ZM144.075 73C144.075 70.3438 144.934 68.2344 146.653 66.6719C148.372 64.9531 150.481 64.0938 152.981 64.0938C155.481 64.0938 157.512 64.9531 159.075 66.6719C160.637 68.2344 161.419 70.3438 161.419 73V155.266C161.419 157.609 160.637 159.641 159.075 161.359C157.512 163.078 155.481 163.938 152.981 163.938C150.481 163.938 148.372 163.078 146.653 161.359C144.934 159.641 144.075 157.609 144.075 155.266V73ZM163.294 35.2656C163.294 38.0781 162.356 40.4219 160.481 42.2969C158.606 44.1719 156.262 45.1094 153.45 45.1094H152.278C149.466 45.1094 147.122 44.1719 145.247 42.2969C143.528 40.4219 142.669 38.0781 142.669 35.2656V34.5625C142.669 31.75 143.606 29.4062 145.481 27.5312C147.356 25.6562 149.622 24.7188 152.278 24.7188H153.45C156.262 24.7188 158.606 25.6562 160.481 27.5312C162.356 29.4062 163.294 31.75 163.294 34.5625V35.2656ZM264.712 69.0156C266.275 65.5781 269.087 63.9375 273.15 64.0938C275.181 64.0938 277.056 64.9531 278.775 66.6719C280.494 68.3906 281.353 70.0312 281.353 71.5938C281.353 73.625 281.041 75.4219 280.416 76.9844L246.9 156.906C245.962 158.781 244.556 160.422 242.681 161.828C240.962 163.234 238.853 163.938 236.353 163.938H234.478C232.134 163.938 230.025 163.234 228.15 161.828C226.275 160.422 224.869 158.781 223.931 156.906L190.65 76.9844C190.025 75.4219 189.712 73.7812 189.712 72.0625C189.712 70.1875 190.494 68.3906 192.056 66.6719C193.619 64.9531 195.494 64.0938 197.681 64.0938C201.744 64.0938 204.556 65.7344 206.119 69.0156L235.416 143.781L264.712 69.0156ZM320.194 120.344C321.288 128.938 324.569 135.812 330.038 140.969C335.663 145.969 343.319 148.469 353.006 148.469C362.85 148.469 371.209 146.906 378.084 143.781C380.272 142.688 382.225 142.141 383.944 142.141C385.663 141.984 387.225 142.609 388.631 144.016C390.194 145.422 390.975 146.984 390.975 148.703C390.975 152.141 389.569 154.562 386.756 155.969C384.1 157.375 381.678 158.625 379.491 159.719C377.303 160.812 374.959 161.75 372.459 162.531C366.678 164.094 359.959 164.875 352.303 164.875C336.522 164.875 324.256 160.5 315.506 151.75C306.913 142.844 302.616 130.266 302.616 114.016C302.616 99.9531 306.288 88.2344 313.631 78.8594C321.913 68.3906 333.553 63.1562 348.553 63.1562C362.928 63.1562 374.256 68 382.538 77.6875C390.35 86.75 394.256 98.0781 394.256 111.672C394.256 114.016 393.397 116.047 391.678 117.766C390.116 119.484 388.084 120.344 385.584 120.344H320.194ZM348.553 77.9219C337.147 77.9219 328.866 83 323.709 93.1562C321.834 96.75 320.663 101.047 320.194 106.047H376.913C376.444 96.9844 373.084 89.7969 366.834 84.4844C361.834 80.1094 355.741 77.9219 348.553 77.9219ZM442.237 81.2031C451.3 69.1719 461.378 63.1562 472.472 63.1562H473.409C475.753 63.1562 477.706 64.0156 479.269 65.7344C480.987 67.2969 481.847 69.3281 481.847 71.8281C481.847 74.3281 480.987 76.3594 479.269 77.9219C477.55 79.3281 475.441 80.0312 472.941 80.0312H472.003C465.597 80.0312 459.894 81.5938 454.894 84.7188C449.894 87.8438 445.675 91.9062 442.237 96.9062V155.266C442.237 157.609 441.378 159.641 439.659 161.359C437.941 163.078 435.909 163.938 433.566 163.938C431.222 163.938 429.191 163.078 427.472 161.359C425.753 159.641 424.894 157.609 424.894 155.266V73C424.894 70.6562 425.675 68.625 427.237 66.9062C428.956 65.0312 431.066 64.0938 433.566 64.0938C435.909 64.0938 437.941 64.9531 439.659 66.6719C441.378 68.3906 442.237 70.5 442.237 73V81.2031ZM537.328 148.703C551.547 148.703 558.578 144.25 558.422 135.344C558.422 132.531 557.016 130.344 554.203 128.781C551.391 127.219 547.875 125.891 543.656 124.797C539.438 123.703 534.828 122.531 529.828 121.281C524.828 120.031 520.141 118.312 515.766 116.125C511.391 113.938 507.797 111.125 504.984 107.688C502.172 104.094 500.766 99.7188 500.766 94.5625C500.766 89.4062 501.547 85.0312 503.109 81.4375C504.672 77.6875 507.016 74.4844 510.141 71.8281C516.859 66.0469 526.234 63.1562 538.266 63.1562C547.953 63.1562 557.25 64.7188 566.156 67.8438C567.875 68.4688 569.203 69.5625 570.141 71.125C571.234 72.5312 571.781 74.0938 571.781 75.8125C571.781 77.375 571 78.9375 569.438 80.5C568.031 82.0625 566.625 82.8438 565.219 82.8438C563.812 82.8438 562.094 82.5312 560.062 81.9062C553.969 80.0312 547.25 79.0938 539.906 79.0938C532.562 79.0938 527.016 80.3438 523.266 82.8438C519.516 85.3438 517.641 88.4688 517.641 92.2188C517.641 95.8125 519.047 98.4688 521.859 100.188C524.672 101.75 528.188 103.156 532.406 104.406C536.781 105.656 541.469 106.828 546.469 107.922C551.625 109.016 556.312 110.656 560.531 112.844C570.531 118 575.531 125.891 575.531 136.516C575.531 144.797 572.406 151.438 566.156 156.438C559.594 162.062 550.297 164.875 538.266 164.875C525.453 164.875 513.891 161.984 503.578 156.203C501.391 154.641 500.219 152.766 500.062 150.578C500.062 148.234 500.766 146.281 502.172 144.719C503.734 143 505.297 142.141 506.859 142.141C508.422 142.141 510.453 142.688 512.953 143.781C520.297 147.062 528.422 148.703 537.328 148.703ZM605.934 73C605.934 70.3438 606.794 68.2344 608.513 66.6719C610.231 64.9531 612.341 64.0938 614.841 64.0938C617.341 64.0938 619.372 64.9531 620.934 66.6719C622.497 68.2344 623.278 70.3438 623.278 73V155.266C623.278 157.609 622.497 159.641 620.934 161.359C619.372 163.078 617.341 163.938 614.841 163.938C612.341 163.938 610.231 163.078 608.513 161.359C606.794 159.641 605.934 157.609 605.934 155.266V73ZM625.153 35.2656C625.153 38.0781 624.216 40.4219 622.341 42.2969C620.466 44.1719 618.122 45.1094 615.309 45.1094H614.138C611.325 45.1094 608.981 44.1719 607.106 42.2969C605.388 40.4219 604.528 38.0781 604.528 35.2656V34.5625C604.528 31.75 605.466 29.4062 607.341 27.5312C609.216 25.6562 611.481 24.7188 614.138 24.7188H615.309C618.122 24.7188 620.466 25.6562 622.341 27.5312C624.216 29.4062 625.153 31.75 625.153 34.5625V35.2656ZM711.572 38.7812L702.197 37.6094C697.353 37.6094 693.447 38.7812 690.478 41.125C687.666 43.3125 686.259 47.7656 686.259 54.4844V65.0312H710.4C712.588 65.0312 714.384 65.7344 715.791 67.1406C717.197 68.5469 717.9 70.3438 717.9 72.5312C717.9 74.7188 717.119 76.5156 715.556 77.9219C714.15 79.3281 712.431 80.0312 710.4 80.0312H686.259V155.266C686.259 157.609 685.4 159.641 683.681 161.359C682.119 163.078 680.088 163.938 677.588 163.938C675.088 163.938 672.978 163.078 671.259 161.359C669.697 159.641 668.916 157.609 668.916 155.266V80.0312H657.431C655.244 80.0312 653.447 79.3281 652.041 77.9219C650.634 76.5156 649.931 74.7188 649.931 72.5312C649.931 70.3438 650.634 68.5469 652.041 67.1406C653.603 65.7344 655.4 65.0312 657.431 65.0312H668.916V53.7812C668.916 42.6875 672.041 34.1719 678.291 28.2344C683.447 23.3906 689.853 20.9688 697.509 20.9688C703.447 20.9688 709.072 22.2188 714.384 24.7188C717.353 26.2812 718.838 28.2344 718.838 30.5781C718.838 32.9219 718.134 34.875 716.728 36.4375C715.322 38 713.603 38.7812 711.572 38.7812ZM742.444 73C742.444 70.3438 743.303 68.2344 745.022 66.6719C746.741 64.9531 748.85 64.0938 751.35 64.0938C753.85 64.0938 755.881 64.9531 757.444 66.6719C759.006 68.2344 759.787 70.3438 759.787 73V155.266C759.787 157.609 759.006 159.641 757.444 161.359C755.881 163.078 753.85 163.938 751.35 163.938C748.85 163.938 746.741 163.078 745.022 161.359C743.303 159.641 742.444 157.609 742.444 155.266V73ZM761.662 35.2656C761.662 38.0781 760.725 40.4219 758.85 42.2969C756.975 44.1719 754.631 45.1094 751.819 45.1094H750.647C747.834 45.1094 745.491 44.1719 743.616 42.2969C741.897 40.4219 741.037 38.0781 741.037 35.2656V34.5625C741.037 31.75 741.975 29.4062 743.85 27.5312C745.725 25.6562 747.991 24.7188 750.647 24.7188H751.819C754.631 24.7188 756.975 25.6562 758.85 27.5312C760.725 29.4062 761.662 31.75 761.662 34.5625V35.2656Z"/>
</mask>
<path d="M88.5938 150.344C79.0625 160.031 68.125 164.875 55.7812 164.875C43.5938 164.875 32.9688 160.578 23.9062 151.984C14.2188 142.297 9.29688 129.641 9.14062 114.016C9.14062 98.7031 14.0625 86.125 23.9062 76.2812C32.8125 67.375 43.4375 63 55.7812 63.1562C68.125 63.1562 79.0625 68 88.5938 77.6875V30.5781C88.5938 28.0781 89.375 26.0469 90.9375 24.4844C92.6562 22.7656 94.7656 21.9062 97.2656 21.9062C99.7656 21.9062 101.797 22.7656 103.359 24.4844C105.078 26.0469 105.938 28.0781 105.938 30.5781V155.266C105.938 157.609 105.078 159.641 103.359 161.359C101.797 163.078 99.7656 163.938 97.2656 163.938C94.7656 163.938 92.6562 163.078 90.9375 161.359C89.375 159.641 88.5938 157.609 88.5938 155.266V150.344ZM88.5938 93.8594C79.8438 84.1719 69.6875 79.4062 58.125 79.5625C43.4375 79.5625 33.8281 86.0469 29.2969 99.0156C27.7344 103.391 26.875 108.391 26.7188 114.016C26.7188 124.953 29.6875 133.625 35.625 140.031C41.0938 145.812 48.5938 148.625 58.125 148.469C69.6875 148.469 79.8438 143.703 88.5938 134.172V93.8594ZM144.075 73C144.075 70.3438 144.934 68.2344 146.653 66.6719C148.372 64.9531 150.481 64.0938 152.981 64.0938C155.481 64.0938 157.512 64.9531 159.075 66.6719C160.637 68.2344 161.419 70.3438 161.419 73V155.266C161.419 157.609 160.637 159.641 159.075 161.359C157.512 163.078 155.481 163.938 152.981 163.938C150.481 163.938 148.372 163.078 146.653 161.359C144.934 159.641 144.075 157.609 144.075 155.266V73ZM163.294 35.2656C163.294 38.0781 162.356 40.4219 160.481 42.2969C158.606 44.1719 156.262 45.1094 153.45 45.1094H152.278C149.466 45.1094 147.122 44.1719 145.247 42.2969C143.528 40.4219 142.669 38.0781 142.669 35.2656V34.5625C142.669 31.75 143.606 29.4062 145.481 27.5312C147.356 25.6562 149.622 24.7188 152.278 24.7188H153.45C156.262 24.7188 158.606 25.6562 160.481 27.5312C162.356 29.4062 163.294 31.75 163.294 34.5625V35.2656ZM264.712 69.0156C266.275 65.5781 269.087 63.9375 273.15 64.0938C275.181 64.0938 277.056 64.9531 278.775 66.6719C280.494 68.3906 281.353 70.0312 281.353 71.5938C281.353 73.625 281.041 75.4219 280.416 76.9844L246.9 156.906C245.962 158.781 244.556 160.422 242.681 161.828C240.962 163.234 238.853 163.938 236.353 163.938H234.478C232.134 163.938 230.025 163.234 228.15 161.828C226.275 160.422 224.869 158.781 223.931 156.906L190.65 76.9844C190.025 75.4219 189.712 73.7812 189.712 72.0625C189.712 70.1875 190.494 68.3906 192.056 66.6719C193.619 64.9531 195.494 64.0938 197.681 64.0938C201.744 64.0938 204.556 65.7344 206.119 69.0156L235.416 143.781L264.712 69.0156ZM320.194 120.344C321.288 128.938 324.569 135.812 330.038 140.969C335.663 145.969 343.319 148.469 353.006 148.469C362.85 148.469 371.209 146.906 378.084 143.781C380.272 142.688 382.225 142.141 383.944 142.141C385.663 141.984 387.225 142.609 388.631 144.016C390.194 145.422 390.975 146.984 390.975 148.703C390.975 152.141 389.569 154.562 386.756 155.969C384.1 157.375 381.678 158.625 379.491 159.719C377.303 160.812 374.959 161.75 372.459 162.531C366.678 164.094 359.959 164.875 352.303 164.875C336.522 164.875 324.256 160.5 315.506 151.75C306.913 142.844 302.616 130.266 302.616 114.016C302.616 99.9531 306.288 88.2344 313.631 78.8594C321.913 68.3906 333.553 63.1562 348.553 63.1562C362.928 63.1562 374.256 68 382.538 77.6875C390.35 86.75 394.256 98.0781 394.256 111.672C394.256 114.016 393.397 116.047 391.678 117.766C390.116 119.484 388.084 120.344 385.584 120.344H320.194ZM348.553 77.9219C337.147 77.9219 328.866 83 323.709 93.1562C321.834 96.75 320.663 101.047 320.194 106.047H376.913C376.444 96.9844 373.084 89.7969 366.834 84.4844C361.834 80.1094 355.741 77.9219 348.553 77.9219ZM442.237 81.2031C451.3 69.1719 461.378 63.1562 472.472 63.1562H473.409C475.753 63.1562 477.706 64.0156 479.269 65.7344C480.987 67.2969 481.847 69.3281 481.847 71.8281C481.847 74.3281 480.987 76.3594 479.269 77.9219C477.55 79.3281 475.441 80.0312 472.941 80.0312H472.003C465.597 80.0312 459.894 81.5938 454.894 84.7188C449.894 87.8438 445.675 91.9062 442.237 96.9062V155.266C442.237 157.609 441.378 159.641 439.659 161.359C437.941 163.078 435.909 163.938 433.566 163.938C431.222 163.938 429.191 163.078 427.472 161.359C425.753 159.641 424.894 157.609 424.894 155.266V73C424.894 70.6562 425.675 68.625 427.237 66.9062C428.956 65.0312 431.066 64.0938 433.566 64.0938C435.909 64.0938 437.941 64.9531 439.659 66.6719C441.378 68.3906 442.237 70.5 442.237 73V81.2031ZM537.328 148.703C551.547 148.703 558.578 144.25 558.422 135.344C558.422 132.531 557.016 130.344 554.203 128.781C551.391 127.219 547.875 125.891 543.656 124.797C539.438 123.703 534.828 122.531 529.828 121.281C524.828 120.031 520.141 118.312 515.766 116.125C511.391 113.938 507.797 111.125 504.984 107.688C502.172 104.094 500.766 99.7188 500.766 94.5625C500.766 89.4062 501.547 85.0312 503.109 81.4375C504.672 77.6875 507.016 74.4844 510.141 71.8281C516.859 66.0469 526.234 63.1562 538.266 63.1562C547.953 63.1562 557.25 64.7188 566.156 67.8438C567.875 68.4688 569.203 69.5625 570.141 71.125C571.234 72.5312 571.781 74.0938 571.781 75.8125C571.781 77.375 571 78.9375 569.438 80.5C568.031 82.0625 566.625 82.8438 565.219 82.8438C563.812 82.8438 562.094 82.5312 560.062 81.9062C553.969 80.0312 547.25 79.0938 539.906 79.0938C532.562 79.0938 527.016 80.3438 523.266 82.8438C519.516 85.3438 517.641 88.4688 517.641 92.2188C517.641 95.8125 519.047 98.4688 521.859 100.188C524.672 101.75 528.188 103.156 532.406 104.406C536.781 105.656 541.469 106.828 546.469 107.922C551.625 109.016 556.312 110.656 560.531 112.844C570.531 118 575.531 125.891 575.531 136.516C575.531 144.797 572.406 151.438 566.156 156.438C559.594 162.062 550.297 164.875 538.266 164.875C525.453 164.875 513.891 161.984 503.578 156.203C501.391 154.641 500.219 152.766 500.062 150.578C500.062 148.234 500.766 146.281 502.172 144.719C503.734 143 505.297 142.141 506.859 142.141C508.422 142.141 510.453 142.688 512.953 143.781C520.297 147.062 528.422 148.703 537.328 148.703ZM605.934 73C605.934 70.3438 606.794 68.2344 608.513 66.6719C610.231 64.9531 612.341 64.0938 614.841 64.0938C617.341 64.0938 619.372 64.9531 620.934 66.6719C622.497 68.2344 623.278 70.3438 623.278 73V155.266C623.278 157.609 622.497 159.641 620.934 161.359C619.372 163.078 617.341 163.938 614.841 163.938C612.341 163.938 610.231 163.078 608.513 161.359C606.794 159.641 605.934 157.609 605.934 155.266V73ZM625.153 35.2656C625.153 38.0781 624.216 40.4219 622.341 42.2969C620.466 44.1719 618.122 45.1094 615.309 45.1094H614.138C611.325 45.1094 608.981 44.1719 607.106 42.2969C605.388 40.4219 604.528 38.0781 604.528 35.2656V34.5625C604.528 31.75 605.466 29.4062 607.341 27.5312C609.216 25.6562 611.481 24.7188 614.138 24.7188H615.309C618.122 24.7188 620.466 25.6562 622.341 27.5312C624.216 29.4062 625.153 31.75 625.153 34.5625V35.2656ZM711.572 38.7812L702.197 37.6094C697.353 37.6094 693.447 38.7812 690.478 41.125C687.666 43.3125 686.259 47.7656 686.259 54.4844V65.0312H710.4C712.588 65.0312 714.384 65.7344 715.791 67.1406C717.197 68.5469 717.9 70.3438 717.9 72.5312C717.9 74.7188 717.119 76.5156 715.556 77.9219C714.15 79.3281 712.431 80.0312 710.4 80.0312H686.259V155.266C686.259 157.609 685.4 159.641 683.681 161.359C682.119 163.078 680.088 163.938 677.588 163.938C675.088 163.938 672.978 163.078 671.259 161.359C669.697 159.641 668.916 157.609 668.916 155.266V80.0312H657.431C655.244 80.0312 653.447 79.3281 652.041 77.9219C650.634 76.5156 649.931 74.7188 649.931 72.5312C649.931 70.3438 650.634 68.5469 652.041 67.1406C653.603 65.7344 655.4 65.0312 657.431 65.0312H668.916V53.7812C668.916 42.6875 672.041 34.1719 678.291 28.2344C683.447 23.3906 689.853 20.9688 697.509 20.9688C703.447 20.9688 709.072 22.2188 714.384 24.7188C717.353 26.2812 718.838 28.2344 718.838 30.5781C718.838 32.9219 718.134 34.875 716.728 36.4375C715.322 38 713.603 38.7812 711.572 38.7812ZM742.444 73C742.444 70.3438 743.303 68.2344 745.022 66.6719C746.741 64.9531 748.85 64.0938 751.35 64.0938C753.85 64.0938 755.881 64.9531 757.444 66.6719C759.006 68.2344 759.787 70.3438 759.787 73V155.266C759.787 157.609 759.006 159.641 757.444 161.359C755.881 163.078 753.85 163.938 751.35 163.938C748.85 163.938 746.741 163.078 745.022 161.359C743.303 159.641 742.444 157.609 742.444 155.266V73ZM761.662 35.2656C761.662 38.0781 760.725 40.4219 758.85 42.2969C756.975 44.1719 754.631 45.1094 751.819 45.1094H750.647C747.834 45.1094 745.491 44.1719 743.616 42.2969C741.897 40.4219 741.037 38.0781 741.037 35.2656V34.5625C741.037 31.75 741.975 29.4062 743.85 27.5312C745.725 25.6562 747.991 24.7188 750.647 24.7188H751.819C754.631 24.7188 756.975 25.6562 758.85 27.5312C760.725 29.4062 761.662 31.75 761.662 34.5625V35.2656Z" fill="black"/>
<path d="M88.5938 150.344H93.5938V138.133L85.0296 146.837L88.5938 150.344ZM23.9062 151.984L20.3707 155.52L20.4176 155.567L20.4658 155.612L23.9062 151.984ZM9.14062 114.016H4.14062V114.041L4.14087 114.066L9.14062 114.016ZM55.7812 63.1562L55.718 68.1558L55.7496 68.1562H55.7812V63.1562ZM88.5938 77.6875L85.0296 81.1942L93.5938 89.8987V77.6875H88.5938ZM103.359 24.4844L99.6597 27.8477L99.8198 28.0239L99.996 28.1841L103.359 24.4844ZM103.359 161.359L99.8238 157.824L99.7397 157.908L99.6597 157.996L103.359 161.359ZM90.9375 161.359L87.2378 164.723L87.3178 164.811L87.402 164.895L90.9375 161.359ZM88.5938 93.8594H93.5938V91.9356L92.3043 90.5079L88.5938 93.8594ZM58.125 79.5625V84.5625H58.1588L58.1926 84.562L58.125 79.5625ZM29.2969 99.0156L34.0056 100.697L34.0114 100.681L34.0171 100.665L29.2969 99.0156ZM26.7188 114.016L21.7207 113.877L21.7188 113.946V114.016H26.7188ZM35.625 140.031L31.9578 143.43L31.9752 143.449L31.9927 143.467L35.625 140.031ZM58.125 148.469V143.469H58.084L58.043 143.469L58.125 148.469ZM88.5938 134.172L92.277 137.553L93.5938 136.119V134.172H88.5938ZM85.0296 146.837C76.3337 155.675 66.6428 159.875 55.7812 159.875V169.875C69.6072 169.875 81.7913 164.387 92.1579 153.85L85.0296 146.837ZM55.7812 159.875C44.9087 159.875 35.5058 156.093 27.3467 148.356L20.4658 155.612C30.4317 165.063 42.2788 169.875 55.7812 169.875V159.875ZM27.4418 148.449C18.8117 139.819 14.2855 128.481 14.1404 113.966L4.14087 114.066C4.30822 130.8 9.62577 144.775 20.3707 155.52L27.4418 148.449ZM14.1406 114.016C14.1406 99.8836 18.6339 88.6247 27.4418 79.8168L20.3707 72.7457C9.49111 83.6253 4.14062 97.5227 4.14062 114.016H14.1406ZM27.4418 79.8168C35.4166 71.8419 44.7526 68.017 55.718 68.1558L55.8445 58.1567C42.1224 57.983 30.2084 62.9081 20.3707 72.7457L27.4418 79.8168ZM55.7812 68.1562C66.6428 68.1562 76.3337 72.3558 85.0296 81.1942L92.1579 74.1808C81.7913 63.6442 69.6072 58.1562 55.7812 58.1562V68.1562ZM93.5938 77.6875V30.5781H83.5938V77.6875H93.5938ZM93.5938 30.5781C93.5938 29.2144 93.9744 28.5185 94.473 28.0199L87.402 20.9488C84.7756 23.5752 83.5938 26.9419 83.5938 30.5781H93.5938ZM94.473 28.0199C95.2246 27.2683 96.0494 26.9062 97.2656 26.9062V16.9062C93.4819 16.9062 90.0879 18.2629 87.402 20.9488L94.473 28.0199ZM97.2656 26.9062C98.4775 26.9062 99.123 27.2574 99.6597 27.8477L107.059 21.121C104.471 18.2738 101.054 16.9062 97.2656 16.9062V26.9062ZM99.996 28.1841C100.586 28.7207 100.938 29.3662 100.938 30.5781H110.938C110.938 26.79 109.57 23.373 106.723 20.7847L99.996 28.1841ZM100.938 30.5781V155.266H110.938V30.5781H100.938ZM100.938 155.266C100.938 156.229 100.644 157.004 99.8238 157.824L106.895 164.895C109.513 162.277 110.938 158.989 110.938 155.266H100.938ZM99.6597 157.996C99.123 158.586 98.4775 158.938 97.2656 158.938V168.938C101.054 168.938 104.471 167.57 107.059 164.723L99.6597 157.996ZM97.2656 158.938C96.0494 158.938 95.2246 158.575 94.473 157.824L87.402 164.895C90.0879 167.581 93.4819 168.938 97.2656 168.938V158.938ZM94.6372 157.996C93.9197 157.207 93.5938 156.378 93.5938 155.266H83.5938C83.5938 158.841 84.8303 162.074 87.2378 164.723L94.6372 157.996ZM93.5938 155.266V150.344H83.5938V155.266H93.5938ZM92.3043 90.5079C82.7288 79.9066 71.252 74.3847 58.0574 74.563L58.1926 84.562C68.123 84.4278 76.9587 88.4372 84.8832 97.2108L92.3043 90.5079ZM58.125 74.5625C50.0503 74.5625 42.9322 76.3494 37.1056 80.2811C31.2509 84.2319 27.1299 90.0589 24.5767 97.3664L34.0171 100.665C35.9951 95.0036 38.9444 91.1041 42.6991 88.5704C46.4819 86.0178 51.5122 84.5625 58.125 84.5625V74.5625ZM24.5882 97.3339C22.8158 102.297 21.8886 107.833 21.7207 113.877L31.7168 114.154C31.8614 108.948 32.653 104.485 34.0056 100.697L24.5882 97.3339ZM21.7188 114.016C21.7188 125.882 24.9619 135.882 31.9578 143.43L39.2922 136.632C34.4131 131.368 31.7188 124.024 31.7188 114.016H21.7188ZM31.9927 143.467C38.6147 150.468 47.5746 153.642 58.207 153.468L58.043 143.469C49.6129 143.608 43.5728 141.157 39.2573 136.595L31.9927 143.467ZM58.125 153.469C71.2624 153.469 82.705 147.98 92.277 137.553L84.9105 130.791C76.9825 139.426 68.1126 143.469 58.125 143.469V153.469ZM93.5938 134.172V93.8594H83.5938V134.172H93.5938ZM146.653 66.6719L150.016 70.3716L150.105 70.2915L150.189 70.2074L146.653 66.6719ZM159.075 66.6719L155.375 70.0352L155.455 70.1233L155.539 70.2074L159.075 66.6719ZM145.247 42.2969L141.561 45.6755L141.635 45.7556L141.711 45.8324L145.247 42.2969ZM149.075 73C149.075 71.5294 149.494 70.8461 150.016 70.3716L143.29 62.9722C140.374 65.6226 139.075 69.1581 139.075 73H149.075ZM150.189 70.2074C150.94 69.4558 151.765 69.0938 152.981 69.0938V59.0938C149.197 59.0938 145.804 60.4504 143.118 63.1363L150.189 70.2074ZM152.981 69.0938C154.193 69.0938 154.839 69.4449 155.375 70.0352L162.775 63.3085C160.186 60.4613 156.769 59.0938 152.981 59.0938V69.0938ZM155.539 70.2074C155.979 70.6473 156.419 71.3832 156.419 73H166.419C166.419 69.3043 165.296 65.8214 162.611 63.1363L155.539 70.2074ZM156.419 73V155.266H166.419V73H156.419ZM156.419 155.266C156.419 156.378 156.093 157.207 155.375 157.996L162.775 164.723C165.182 162.074 166.419 158.841 166.419 155.266H156.419ZM155.375 157.996C154.839 158.586 154.193 158.938 152.981 158.938V168.938C156.769 168.938 160.186 167.57 162.775 164.723L155.375 157.996ZM152.981 158.938C151.765 158.938 150.94 158.575 150.189 157.824L143.118 164.895C145.804 167.581 149.197 168.938 152.981 168.938V158.938ZM150.189 157.824C149.369 157.004 149.075 156.229 149.075 155.266H139.075C139.075 158.989 140.5 162.277 143.118 164.895L150.189 157.824ZM149.075 155.266V73H139.075V155.266H149.075ZM158.294 35.2656C158.294 36.8413 157.822 37.8853 156.946 38.7613L164.017 45.8324C166.891 42.9584 168.294 39.3149 168.294 35.2656H158.294ZM156.946 38.7613C156.07 39.6374 155.026 40.1094 153.45 40.1094V50.1094C157.499 50.1094 161.143 48.7064 164.017 45.8324L156.946 38.7613ZM153.45 40.1094H152.278V50.1094H153.45V40.1094ZM152.278 40.1094C150.702 40.1094 149.658 39.6374 148.782 38.7613L141.711 45.8324C144.585 48.7064 148.229 50.1094 152.278 50.1094V40.1094ZM148.933 38.9183C148.151 38.0658 147.669 36.9704 147.669 35.2656H137.669C137.669 39.1859 138.905 42.778 141.561 45.6755L148.933 38.9183ZM147.669 35.2656V34.5625H137.669V35.2656H147.669ZM147.669 34.5625C147.669 32.9868 148.141 31.9428 149.017 31.0668L141.946 23.9957C139.072 26.8697 137.669 30.5132 137.669 34.5625H147.669ZM149.017 31.0668C149.952 30.1313 150.945 29.7188 152.278 29.7188V19.7188C148.298 19.7188 144.76 21.1812 141.946 23.9957L149.017 31.0668ZM152.278 29.7188H153.45V19.7188H152.278V29.7188ZM153.45 29.7188C155.026 29.7188 156.07 30.1908 156.946 31.0668L164.017 23.9957C161.143 21.1217 157.499 19.7188 153.45 19.7188V29.7188ZM156.946 31.0668C157.822 31.9428 158.294 32.9868 158.294 34.5625H168.294C168.294 30.5132 166.891 26.8697 164.017 23.9957L156.946 31.0668ZM158.294 34.5625V35.2656H168.294V34.5625H158.294ZM264.712 69.0156L260.161 66.9466L260.106 67.0676L260.057 67.1914L264.712 69.0156ZM273.15 64.0938L272.958 69.0901L273.054 69.0938H273.15V64.0938ZM280.416 76.9844L285.027 78.918L285.043 78.8798L285.058 78.8413L280.416 76.9844ZM246.9 156.906L251.372 159.142L251.447 158.993L251.511 158.84L246.9 156.906ZM242.681 161.828L239.681 157.828L239.597 157.891L239.515 157.958L242.681 161.828ZM223.931 156.906L219.315 158.828L219.382 158.988L219.459 159.142L223.931 156.906ZM190.65 76.9844L186.008 78.8413L186.021 78.874L186.034 78.9065L190.65 76.9844ZM206.119 69.0156L210.774 67.1914L210.709 67.0262L210.633 66.866L206.119 69.0156ZM235.416 143.781L230.76 145.605L235.416 157.486L240.071 145.605L235.416 143.781ZM269.264 71.0846C269.688 70.1528 270.138 69.7449 270.513 69.5259C270.916 69.2909 271.641 69.0394 272.958 69.0901L273.342 59.0974C270.597 58.9918 267.884 59.4826 265.474 60.8881C263.037 62.3098 261.3 64.4409 260.161 66.9466L269.264 71.0846ZM273.15 69.0938C273.6 69.0938 274.261 69.2288 275.239 70.2074L282.311 63.1363C279.852 60.6774 276.763 59.0938 273.15 59.0938V69.0938ZM275.239 70.2074C275.846 70.8141 276.145 71.254 276.279 71.5114C276.403 71.7482 276.353 71.7578 276.353 71.5938H286.353C286.353 68.1282 284.46 65.2855 282.311 63.1363L275.239 70.2074ZM276.353 71.5938C276.353 73.1173 276.119 74.264 275.773 75.1274L285.058 78.8413C285.963 76.5797 286.353 74.1327 286.353 71.5938H276.353ZM275.805 75.0507L242.289 154.973L251.511 158.84L285.027 78.918L275.805 75.0507ZM242.428 154.67C241.877 155.773 241.009 156.832 239.681 157.828L245.681 165.828C248.103 164.012 250.048 161.79 251.372 159.142L242.428 154.67ZM239.515 157.958C238.802 158.542 237.853 158.938 236.353 158.938V168.938C239.853 168.938 243.123 167.927 245.847 165.698L239.515 157.958ZM236.353 158.938H234.478V168.938H236.353V158.938ZM234.478 158.938C233.216 158.938 232.16 158.585 231.15 157.828L225.15 165.828C227.89 167.883 231.053 168.938 234.478 168.938V158.938ZM231.15 157.828C229.822 156.832 228.955 155.773 228.403 154.67L219.459 159.142C220.783 161.79 222.728 164.012 225.15 165.828L231.15 157.828ZM228.547 154.984L195.266 75.0623L186.034 78.9065L219.315 158.828L228.547 154.984ZM195.292 75.1274C194.909 74.1683 194.712 73.159 194.712 72.0625H184.712C184.712 74.4035 185.141 76.6755 186.008 78.8413L195.292 75.1274ZM194.712 72.0625C194.712 71.7102 194.821 71.0632 195.756 70.0352L188.357 63.3085C186.166 65.7181 184.712 68.6648 184.712 72.0625H194.712ZM195.756 70.0352C196.437 69.2862 196.998 69.0938 197.681 69.0938V59.0938C193.99 59.0938 190.801 60.62 188.357 63.3085L195.756 70.0352ZM197.681 69.0938C199.044 69.0938 199.844 69.3668 200.318 69.6431C200.757 69.8993 201.203 70.3222 201.604 71.1653L210.633 66.866C209.472 64.4278 207.73 62.3897 205.357 61.0053C203.018 59.641 200.381 59.0938 197.681 59.0938V69.0938ZM201.463 70.8398L230.76 145.605L240.071 141.957L210.774 67.1914L201.463 70.8398ZM240.071 145.605L269.368 70.8398L260.057 67.1914L230.76 141.957L240.071 145.605ZM320.194 120.344V115.344H314.517L315.234 120.975L320.194 120.344ZM330.038 140.969L326.607 144.607L326.661 144.657L326.716 144.706L330.038 140.969ZM378.084 143.781L380.153 148.333L380.238 148.295L380.32 148.253L378.084 143.781ZM383.944 142.141V147.141H384.171L384.396 147.12L383.944 142.141ZM388.631 144.016L385.096 147.551L385.189 147.644L385.286 147.732L388.631 144.016ZM386.756 155.969L384.52 151.497L384.468 151.523L384.417 151.55L386.756 155.969ZM372.459 162.531L373.764 167.358L373.858 167.333L373.951 167.304L372.459 162.531ZM315.506 151.75L311.908 155.222L311.939 155.254L311.971 155.286L315.506 151.75ZM313.631 78.8594L309.71 75.7574L309.702 75.7667L309.695 75.7761L313.631 78.8594ZM382.538 77.6875L378.737 80.9364L378.744 80.9443L378.75 80.9522L382.538 77.6875ZM391.678 117.766L388.143 114.23L388.058 114.314L387.978 114.402L391.678 117.766ZM323.709 93.1562L328.142 95.4691L328.155 95.4445L328.168 95.4197L323.709 93.1562ZM320.194 106.047L315.216 105.58L314.703 111.047H320.194V106.047ZM376.913 106.047V111.047H382.178L381.906 105.789L376.913 106.047ZM366.834 84.4844L363.542 88.2473L363.569 88.2709L363.596 88.2941L366.834 84.4844ZM315.234 120.975C316.45 130.533 320.17 138.537 326.607 144.607L333.468 137.331C328.968 133.088 326.125 127.342 325.154 119.712L315.234 120.975ZM326.716 144.706C333.494 150.731 342.456 153.469 353.006 153.469V143.469C344.182 143.469 337.831 141.206 333.359 137.232L326.716 144.706ZM353.006 153.469C363.356 153.469 372.463 151.829 380.153 148.333L376.015 139.229C369.956 141.984 362.344 143.469 353.006 143.469V153.469ZM380.32 148.253C382.088 147.37 383.259 147.141 383.944 147.141V137.141C381.191 137.141 378.456 138.005 375.848 139.309L380.32 148.253ZM384.396 147.12C384.456 147.115 384.486 147.118 384.496 147.12C384.506 147.121 384.521 147.124 384.548 147.135C384.597 147.154 384.786 147.241 385.096 147.551L392.167 140.48C389.89 138.203 386.922 136.849 383.491 137.161L384.396 147.12ZM385.286 147.732C385.695 148.1 385.857 148.358 385.917 148.478C385.966 148.577 385.975 148.633 385.975 148.703H395.975C395.975 145.257 394.338 142.425 391.976 140.299L385.286 147.732ZM385.975 148.703C385.975 149.739 385.766 150.294 385.596 150.587C385.442 150.853 385.165 151.174 384.52 151.497L388.992 160.441C391.16 159.357 392.993 157.764 394.244 155.608C395.481 153.479 395.975 151.104 395.975 148.703H385.975ZM384.417 151.55C381.787 152.942 379.401 154.174 377.255 155.247L381.727 164.191C383.956 163.076 386.413 161.808 389.096 160.388L384.417 151.55ZM377.255 155.247C375.323 156.212 373.23 157.052 370.968 157.759L373.951 167.304C376.689 166.448 379.283 165.413 381.727 164.191L377.255 155.247ZM371.155 157.704C365.898 159.125 359.635 159.875 352.303 159.875V169.875C360.284 169.875 367.458 169.062 373.764 167.358L371.155 157.704ZM352.303 159.875C337.465 159.875 326.614 155.787 319.042 148.214L311.971 155.286C321.898 165.213 335.579 169.875 352.303 169.875V159.875ZM319.104 148.278C311.664 140.567 307.616 129.389 307.616 114.016H297.616C297.616 131.142 302.161 145.12 311.908 155.222L319.104 148.278ZM307.616 114.016C307.616 100.861 311.032 90.2855 317.567 81.9427L309.695 75.7761C301.543 86.1832 297.616 99.0454 297.616 114.016H307.616ZM317.553 81.9614C324.76 72.8504 334.867 68.1562 348.553 68.1562V58.1562C332.239 58.1562 319.065 63.9308 309.71 75.7574L317.553 81.9614ZM348.553 68.1562C361.676 68.1562 371.534 72.51 378.737 80.9364L386.338 74.4386C376.979 63.49 364.181 58.1562 348.553 58.1562V68.1562ZM378.75 80.9522C385.674 88.9836 389.256 99.1029 389.256 111.672H399.256C399.256 97.0534 395.026 84.5164 386.325 74.4228L378.75 80.9522ZM389.256 111.672C389.256 112.636 388.962 113.41 388.143 114.23L395.214 121.301C397.831 118.684 399.256 115.396 399.256 111.672H389.256ZM387.978 114.402C387.442 114.993 386.796 115.344 385.584 115.344V125.344C389.372 125.344 392.79 123.976 395.378 121.129L387.978 114.402ZM385.584 115.344H320.194V125.344H385.584V115.344ZM348.553 72.9219C342.09 72.9219 336.229 74.3681 331.174 77.468C326.118 80.5682 322.174 85.1348 319.251 90.8928L328.168 95.4197C330.401 91.0214 333.176 87.9709 336.401 85.9929C339.627 84.0147 343.61 82.9219 348.553 82.9219V72.9219ZM319.276 90.8434C317.04 95.1308 315.731 100.084 315.216 105.58L325.172 106.514C325.594 102.009 326.629 98.3692 328.142 95.4691L319.276 90.8434ZM320.194 111.047H376.913V101.047H320.194V111.047ZM381.906 105.789C381.374 95.513 377.489 86.9786 370.073 80.6747L363.596 88.2941C368.68 92.6151 371.513 98.4558 371.919 106.305L381.906 105.789ZM370.127 80.7215C364.138 75.4811 356.845 72.9219 348.553 72.9219V82.9219C354.637 82.9219 359.531 84.7377 363.542 88.2473L370.127 80.7215ZM442.237 81.2031H437.237V96.1514L446.231 84.2114L442.237 81.2031ZM479.269 65.7344L475.569 69.0977L475.729 69.2739L475.905 69.4341L479.269 65.7344ZM479.269 77.9219L482.435 81.7917L482.536 81.7092L482.632 81.6216L479.269 77.9219ZM442.237 96.9062L438.117 94.0736L437.237 95.3533V96.9062H442.237ZM439.659 161.359L436.124 157.824L439.659 161.359ZM427.237 66.9062L423.552 63.5276L423.545 63.5352L423.538 63.5429L427.237 66.9062ZM439.659 66.6719L436.124 70.2074L439.659 66.6719ZM446.231 84.2114C454.713 72.9513 463.468 68.1562 472.472 68.1562V58.1562C459.288 58.1562 447.887 65.3924 438.244 78.1948L446.231 84.2114ZM472.472 68.1562H473.409V58.1562H472.472V68.1562ZM473.409 68.1562C474.359 68.1562 474.964 68.432 475.569 69.0977L482.968 62.371C480.449 59.5992 477.147 58.1562 473.409 58.1562V68.1562ZM475.905 69.4341C476.496 69.9707 476.847 70.6162 476.847 71.8281H486.847C486.847 68.04 485.479 64.623 482.632 62.0347L475.905 69.4341ZM476.847 71.8281C476.847 73.04 476.496 73.6855 475.905 74.2222L482.632 81.6216C485.479 79.0332 486.847 75.6162 486.847 71.8281H476.847ZM476.103 74.0521C475.389 74.6356 474.44 75.0312 472.941 75.0312V85.0312C476.441 85.0312 479.711 84.0206 482.435 81.7917L476.103 74.0521ZM472.941 75.0312H472.003V85.0312H472.941V75.0312ZM472.003 75.0312C464.744 75.0312 458.107 76.8143 452.244 80.4788L457.544 88.9587C461.681 86.3732 466.45 85.0312 472.003 85.0312V75.0312ZM452.244 80.4788C446.645 83.9778 441.932 88.5255 438.117 94.0736L446.358 99.7389C449.418 95.287 453.142 91.7097 457.544 88.9587L452.244 80.4788ZM437.237 96.9062V155.266H447.237V96.9062H437.237ZM437.237 155.266C437.237 156.229 436.944 157.004 436.124 157.824L443.195 164.895C445.812 162.277 447.237 158.989 447.237 155.266H437.237ZM436.124 157.824C435.304 158.644 434.529 158.938 433.566 158.938V168.938C437.289 168.938 440.577 167.513 443.195 164.895L436.124 157.824ZM433.566 158.938C432.602 158.938 431.827 158.644 431.007 157.824L423.936 164.895C426.554 167.513 429.842 168.938 433.566 168.938V158.938ZM431.007 157.824C430.187 157.004 429.894 156.229 429.894 155.266H419.894C419.894 158.989 421.319 162.277 423.936 164.895L431.007 157.824ZM429.894 155.266V73H419.894V155.266H429.894ZM429.894 73C429.894 71.8877 430.22 71.0589 430.937 70.2696L423.538 63.5429C421.13 66.1911 419.894 69.4248 419.894 73H429.894ZM430.923 70.2849C431.714 69.4225 432.495 69.0938 433.566 69.0938V59.0938C429.637 59.0938 426.199 60.64 423.552 63.5276L430.923 70.2849ZM433.566 69.0938C434.529 69.0938 435.304 69.3875 436.124 70.2074L443.195 63.1363C440.577 60.5187 437.289 59.0938 433.566 59.0938V69.0938ZM436.124 70.2074C436.875 70.959 437.237 71.7838 437.237 73H447.237C447.237 69.2162 445.881 65.8223 443.195 63.1363L436.124 70.2074ZM437.237 73V81.2031H447.237V73H437.237ZM558.422 135.344H553.422V135.388L553.423 135.431L558.422 135.344ZM504.984 107.688L501.047 110.769L501.08 110.812L501.115 110.854L504.984 107.688ZM503.109 81.4375L507.695 83.4311L507.71 83.396L507.725 83.3606L503.109 81.4375ZM510.141 71.8281L513.379 75.6378L513.39 75.628L513.402 75.6182L510.141 71.8281ZM566.156 67.8438L567.865 63.1448L567.838 63.1351L567.812 63.1258L566.156 67.8438ZM570.141 71.125L565.853 73.6975L566.008 73.9564L566.194 74.1947L570.141 71.125ZM569.438 80.5L565.902 76.9645L565.809 77.0574L565.721 77.1552L569.438 80.5ZM521.859 100.188L519.252 104.454L519.341 104.508L519.431 104.558L521.859 100.188ZM532.406 104.406L530.986 109.2L531.009 109.207L531.033 109.214L532.406 104.406ZM546.469 107.922L545.4 112.806L545.416 112.81L545.431 112.813L546.469 107.922ZM560.531 112.844L558.23 117.283L558.24 117.288L560.531 112.844ZM566.156 156.438L563.033 152.533L562.967 152.586L562.902 152.641L566.156 156.438ZM503.578 156.203L500.672 160.272L500.895 160.431L501.133 160.565L503.578 156.203ZM500.062 150.578H495.062V150.756L495.075 150.934L500.062 150.578ZM502.172 144.719L498.472 141.355L498.464 141.365L498.455 141.374L502.172 144.719ZM512.953 143.781L514.993 139.216L514.975 139.208L514.957 139.2L512.953 143.781ZM537.328 153.703C544.791 153.703 551.239 152.565 555.941 149.587C561.051 146.351 563.527 141.305 563.421 135.256L553.423 135.431C553.473 138.289 552.511 139.923 550.59 141.139C548.261 142.615 544.084 143.703 537.328 143.703V153.703ZM563.422 135.344C563.422 130.42 560.755 126.702 556.631 124.41L551.775 133.152C553.276 133.986 553.422 134.642 553.422 135.344H563.422ZM556.631 124.41C553.345 122.585 549.405 121.122 544.911 119.957L542.401 129.637C546.345 130.659 549.436 131.853 551.775 133.152L556.631 124.41ZM544.911 119.957C540.676 118.859 536.052 117.683 531.041 116.431L528.615 126.132C533.604 127.379 538.199 128.547 542.401 129.637L544.911 119.957ZM531.041 116.431C526.376 115.264 522.033 113.669 518.002 111.653L513.53 120.597C518.248 122.956 523.28 124.798 528.615 126.132L531.041 116.431ZM518.002 111.653C514.193 109.748 511.177 107.36 508.854 104.521L501.115 110.854C504.417 114.89 508.588 118.127 513.53 120.597L518.002 111.653ZM508.922 104.606C506.886 102.005 505.766 98.7545 505.766 94.5625H495.766C495.766 100.683 497.457 106.182 501.047 110.769L508.922 104.606ZM505.766 94.5625C505.766 89.886 506.477 86.2308 507.695 83.4311L498.524 79.4439C496.616 83.8317 495.766 88.9265 495.766 94.5625H505.766ZM507.725 83.3606C508.981 80.3466 510.849 77.7878 513.379 75.6378L506.902 68.0184C503.182 71.1809 500.363 75.0284 498.494 79.5144L507.725 83.3606ZM513.402 75.6182C518.934 70.8583 527.002 68.1562 538.266 68.1562V58.1562C525.467 58.1562 514.785 61.2355 506.879 68.0381L513.402 75.6182ZM538.266 68.1562C547.404 68.1562 556.141 69.6283 564.501 72.5617L567.812 63.1258C558.359 59.8092 548.502 58.1562 538.266 58.1562V68.1562ZM564.448 72.5427C565.093 72.7773 565.508 73.1226 565.853 73.6975L574.428 68.5525C572.898 66.0024 570.657 64.1602 567.865 63.1448L564.448 72.5427ZM566.194 74.1947C566.632 74.7578 566.781 75.2486 566.781 75.8125H576.781C576.781 72.9389 575.837 70.3047 574.087 68.0553L566.194 74.1947ZM566.781 75.8125C566.781 75.5812 566.919 75.947 565.902 76.9645L572.973 84.0355C575.081 81.928 576.781 79.1688 576.781 75.8125H566.781ZM565.721 77.1552C565.281 77.6445 564.997 77.8328 564.9 77.887C564.831 77.9251 564.956 77.8438 565.219 77.8438V87.8438C568.621 87.8438 571.272 85.9363 573.154 83.8448L565.721 77.1552ZM565.219 77.8438C564.496 77.8438 563.305 77.6726 561.533 77.1274L558.592 86.6851C560.882 87.3899 563.129 87.8438 565.219 87.8438V77.8438ZM561.533 77.1274C554.897 75.0855 547.674 74.0938 539.906 74.0938V84.0938C546.826 84.0938 553.041 84.977 558.592 86.6851L561.533 77.1274ZM539.906 74.0938C532.139 74.0938 525.432 75.39 520.492 78.6835L526.039 87.004C528.599 85.2975 532.986 84.0938 539.906 84.0938V74.0938ZM520.492 78.6835C515.674 81.8959 512.641 86.4434 512.641 92.2188H522.641C522.641 90.4941 523.358 88.7916 526.039 87.004L520.492 78.6835ZM512.641 92.2188C512.641 97.3652 514.799 101.732 519.252 104.454L524.467 95.9211C523.295 95.2051 522.641 94.2598 522.641 92.2188H512.641ZM519.431 104.558C522.655 106.35 526.535 107.881 530.986 109.2L533.827 99.6123C529.84 98.431 526.688 97.1505 524.288 95.8167L519.431 104.558ZM531.033 109.214C535.52 110.496 540.31 111.693 545.4 112.806L547.537 103.037C542.627 101.963 538.042 100.817 533.78 99.5986L531.033 109.214ZM545.431 112.813C550.195 113.824 554.451 115.323 558.23 117.283L562.833 108.405C558.174 105.989 553.055 104.208 547.506 103.031L545.431 112.813ZM558.24 117.288C562.612 119.542 565.622 122.25 567.558 125.305C569.483 128.344 570.531 132.017 570.531 136.516H580.531C580.531 130.389 579.079 124.804 576.005 119.953C572.94 115.117 568.451 111.302 562.823 108.4L558.24 117.288ZM570.531 136.516C570.531 143.339 568.05 148.52 563.033 152.533L569.28 160.342C576.763 154.355 580.531 146.255 580.531 136.516H570.531ZM562.902 152.641C557.546 157.232 549.569 159.875 538.266 159.875V169.875C551.025 169.875 561.642 166.893 569.41 160.234L562.902 152.641ZM538.266 159.875C526.236 159.875 515.527 157.17 506.023 151.842L501.133 160.565C512.254 166.799 524.671 169.875 538.266 169.875V159.875ZM506.484 152.134C505.209 151.223 505.076 150.591 505.05 150.222L495.075 150.934C495.361 154.94 497.573 158.058 500.672 160.272L506.484 152.134ZM505.062 150.578C505.062 149.317 505.405 148.6 505.888 148.064L498.455 141.374C496.126 143.962 495.062 147.152 495.062 150.578H505.062ZM505.872 148.082C506.388 147.514 506.748 147.264 506.925 147.166C507.074 147.085 507.033 147.141 506.859 147.141V137.141C503.321 137.141 500.518 139.105 498.472 141.355L505.872 148.082ZM506.859 147.141C507.398 147.141 508.679 147.369 510.949 148.362L514.957 139.2C512.228 138.006 509.446 137.141 506.859 137.141V147.141ZM510.913 148.346C518.965 151.944 527.795 153.703 537.328 153.703V143.703C529.049 143.703 521.629 142.181 514.993 139.216L510.913 148.346ZM608.513 66.6719L611.876 70.3716L611.964 70.2915L612.048 70.2074L608.513 66.6719ZM620.934 66.6719L617.235 70.0352L617.315 70.1233L617.399 70.2074L620.934 66.6719ZM607.106 42.2969L603.42 45.6755L603.494 45.7556L603.571 45.8324L607.106 42.2969ZM610.934 73C610.934 71.5294 611.354 70.8461 611.876 70.3716L605.149 62.9722C602.234 65.6226 600.934 69.1581 600.934 73H610.934ZM612.048 70.2074C612.8 69.4558 613.624 69.0938 614.841 69.0938V59.0938C611.057 59.0938 607.663 60.4504 604.977 63.1363L612.048 70.2074ZM614.841 69.0938C616.053 69.0938 616.698 69.4449 617.235 70.0352L624.634 63.3085C622.046 60.4613 618.629 59.0938 614.841 59.0938V69.0938ZM617.399 70.2074C617.839 70.6473 618.278 71.3832 618.278 73H628.278C628.278 69.3043 627.155 65.8214 624.47 63.1363L617.399 70.2074ZM618.278 73V155.266H628.278V73H618.278ZM618.278 155.266C618.278 156.378 617.952 157.207 617.235 157.996L624.634 164.723C627.042 162.074 628.278 158.841 628.278 155.266H618.278ZM617.235 157.996C616.698 158.586 616.053 158.938 614.841 158.938V168.938C618.629 168.938 622.046 167.57 624.634 164.723L617.235 157.996ZM614.841 158.938C613.624 158.938 612.8 158.575 612.048 157.824L604.977 164.895C607.663 167.581 611.057 168.938 614.841 168.938V158.938ZM612.048 157.824C611.228 157.004 610.934 156.229 610.934 155.266H600.934C600.934 158.989 602.359 162.277 604.977 164.895L612.048 157.824ZM610.934 155.266V73H600.934V155.266H610.934ZM620.153 35.2656C620.153 36.8413 619.681 37.8853 618.805 38.7613L625.876 45.8324C628.75 42.9584 630.153 39.3149 630.153 35.2656H620.153ZM618.805 38.7613C617.929 39.6374 616.885 40.1094 615.309 40.1094V50.1094C619.359 50.1094 623.002 48.7064 625.876 45.8324L618.805 38.7613ZM615.309 40.1094H614.138V50.1094H615.309V40.1094ZM614.138 40.1094C612.562 40.1094 611.518 39.6374 610.642 38.7613L603.571 45.8324C606.445 48.7064 610.088 50.1094 614.138 50.1094V40.1094ZM610.792 38.9183C610.011 38.0658 609.528 36.9704 609.528 35.2656H599.528C599.528 39.1859 600.764 42.778 603.42 45.6755L610.792 38.9183ZM609.528 35.2656V34.5625H599.528V35.2656H609.528ZM609.528 34.5625C609.528 32.9868 610 31.9428 610.876 31.0668L603.805 23.9957C600.931 26.8697 599.528 30.5132 599.528 34.5625H609.528ZM610.876 31.0668C611.812 30.1313 612.805 29.7188 614.138 29.7188V19.7188C610.158 19.7188 606.62 21.1812 603.805 23.9957L610.876 31.0668ZM614.138 29.7188H615.309V19.7188H614.138V29.7188ZM615.309 29.7188C616.885 29.7188 617.929 30.1908 618.805 31.0668L625.876 23.9957C623.002 21.1217 619.359 19.7188 615.309 19.7188V29.7188ZM618.805 31.0668C619.681 31.9428 620.153 32.9868 620.153 34.5625H630.153C630.153 30.5132 628.75 26.8697 625.876 23.9957L618.805 31.0668ZM620.153 34.5625V35.2656H630.153V34.5625H620.153ZM711.572 38.7812L710.952 43.7426L711.261 43.7812H711.572V38.7812ZM702.197 37.6094L702.817 32.648L702.508 32.6094H702.197V37.6094ZM690.478 41.125L693.548 45.0718L693.562 45.0606L693.576 45.0494L690.478 41.125ZM686.259 65.0312H681.259V70.0312H686.259V65.0312ZM715.556 77.9219L712.211 74.2054L712.114 74.2934L712.021 74.3863L715.556 77.9219ZM686.259 80.0312V75.0312H681.259V80.0312H686.259ZM683.681 161.359L680.146 157.824L680.062 157.908L679.982 157.996L683.681 161.359ZM671.259 161.359L667.56 164.723L667.64 164.811L667.724 164.895L671.259 161.359ZM668.916 80.0312H673.916V75.0312H668.916V80.0312ZM652.041 67.1406L648.696 63.4242L648.598 63.5121L648.505 63.6051L652.041 67.1406ZM668.916 65.0312V70.0312H673.916V65.0312H668.916ZM678.291 28.2344L674.867 24.5901L674.857 24.5997L674.847 24.6094L678.291 28.2344ZM714.384 24.7188L716.713 20.2942L716.614 20.2422L716.513 20.1947L714.384 24.7188ZM716.728 36.4375L720.445 39.7823L716.728 36.4375ZM712.192 33.8199L702.817 32.648L701.577 42.5708L710.952 43.7426L712.192 33.8199ZM702.197 32.6094C696.549 32.6094 691.453 33.985 687.38 37.2006L693.576 45.0494C695.441 43.5775 698.158 42.6094 702.197 42.6094V32.6094ZM687.408 37.1782C682.641 40.8862 681.259 47.4925 681.259 54.4844H691.259C691.259 48.0388 692.69 45.7388 693.548 45.0718L687.408 37.1782ZM681.259 54.4844V65.0312H691.259V54.4844H681.259ZM686.259 70.0312H710.4V60.0312H686.259V70.0312ZM710.4 70.0312C711.407 70.0312 711.885 70.3058 712.255 70.6762L719.326 63.6051C716.884 61.163 713.768 60.0312 710.4 60.0312V70.0312ZM712.255 70.6762C712.626 71.0466 712.9 71.5242 712.9 72.5312H722.9C722.9 69.1633 721.768 66.0472 719.326 63.6051L712.255 70.6762ZM712.9 72.5312C712.9 73.3666 712.673 73.7902 712.211 74.2054L718.901 81.6383C721.565 79.241 722.9 76.0709 722.9 72.5312H712.9ZM712.021 74.3863C711.574 74.8327 711.137 75.0312 710.4 75.0312V85.0312C713.726 85.0312 716.726 83.8236 719.092 81.4574L712.021 74.3863ZM710.4 75.0312H686.259V85.0312H710.4V75.0312ZM681.259 80.0312V155.266H691.259V80.0312H681.259ZM681.259 155.266C681.259 156.229 680.966 157.004 680.146 157.824L687.217 164.895C689.834 162.277 691.259 158.989 691.259 155.266H681.259ZM679.982 157.996C679.445 158.586 678.799 158.938 677.588 158.938V168.938C681.376 168.938 684.793 167.57 687.381 164.723L679.982 157.996ZM677.588 158.938C676.371 158.938 675.546 158.575 674.795 157.824L667.724 164.895C670.41 167.581 673.804 168.938 677.588 168.938V158.938ZM674.959 157.996C674.242 157.207 673.916 156.378 673.916 155.266H663.916C663.916 158.841 665.152 162.074 667.56 164.723L674.959 157.996ZM673.916 155.266V80.0312H663.916V155.266H673.916ZM668.916 75.0312H657.431V85.0312H668.916V75.0312ZM657.431 75.0312C656.424 75.0312 655.947 74.7567 655.576 74.3863L648.505 81.4574C650.947 83.8995 654.063 85.0312 657.431 85.0312V75.0312ZM655.576 74.3863C655.206 74.0159 654.931 73.5383 654.931 72.5312H644.931C644.931 75.8992 646.063 79.0153 648.505 81.4574L655.576 74.3863ZM654.931 72.5312C654.931 71.5242 655.206 71.0466 655.576 70.6762L648.505 63.6051C646.063 66.0472 644.931 69.1633 644.931 72.5312H654.931ZM655.385 70.8571C656.065 70.2455 656.682 70.0312 657.431 70.0312V60.0312C654.118 60.0312 651.141 61.2233 648.696 63.4242L655.385 70.8571ZM657.431 70.0312H668.916V60.0312H657.431V70.0312ZM673.916 65.0312V53.7812H663.916V65.0312H673.916ZM673.916 53.7812C673.916 43.6435 676.743 36.601 681.734 31.8594L674.847 24.6094C667.338 31.7427 663.916 41.7315 663.916 53.7812H673.916ZM681.714 31.8786C685.863 27.9811 691.011 25.9688 697.509 25.9688V15.9688C688.695 15.9688 681.031 18.8002 674.867 24.5901L681.714 31.8786ZM697.509 25.9688C702.719 25.9688 707.617 27.0599 712.255 29.2428L716.513 20.1947C710.527 17.3776 704.174 15.9688 697.509 15.9688V25.9688ZM712.056 29.1433C713.118 29.7024 713.574 30.1583 713.743 30.3809C713.857 30.531 713.838 30.5524 713.838 30.5781H723.838C723.838 25.6219 720.526 22.3008 716.713 20.2942L712.056 29.1433ZM713.838 30.5781C713.838 31.8396 713.495 32.556 713.012 33.0927L720.445 39.7823C722.774 37.194 723.838 34.0042 723.838 30.5781H713.838ZM713.012 33.0927C712.516 33.6434 712.13 33.7812 711.572 33.7812V43.7812C715.076 43.7812 718.128 42.3566 720.445 39.7823L713.012 33.0927ZM745.022 66.6719L748.385 70.3716L748.473 70.2915L748.557 70.2074L745.022 66.6719ZM757.444 66.6719L753.744 70.0352L753.824 70.1233L753.908 70.2074L757.444 66.6719ZM743.616 42.2969L739.93 45.6755L740.003 45.7556L740.08 45.8324L743.616 42.2969ZM747.444 73C747.444 71.5294 747.863 70.8461 748.385 70.3716L741.658 62.9722C738.743 65.6226 737.444 69.1581 737.444 73H747.444ZM748.557 70.2074C749.309 69.4558 750.134 69.0938 751.35 69.0938V59.0938C747.566 59.0938 744.172 60.4504 741.486 63.1363L748.557 70.2074ZM751.35 69.0938C752.562 69.0938 753.207 69.4449 753.744 70.0352L761.143 63.3085C758.555 60.4613 755.138 59.0938 751.35 59.0938V69.0938ZM753.908 70.2074C754.348 70.6473 754.787 71.3832 754.787 73H764.787C764.787 69.3043 763.664 65.8214 760.979 63.1363L753.908 70.2074ZM754.787 73V155.266H764.787V73H754.787ZM754.787 155.266C754.787 156.378 754.462 157.207 753.744 157.996L761.143 164.723C763.551 162.074 764.787 158.841 764.787 155.266H754.787ZM753.744 157.996C753.207 158.586 752.562 158.938 751.35 158.938V168.938C755.138 168.938 758.555 167.57 761.143 164.723L753.744 157.996ZM751.35 158.938C750.134 158.938 749.309 158.575 748.557 157.824L741.486 164.895C744.172 167.581 747.566 168.938 751.35 168.938V158.938ZM748.557 157.824C747.737 157.004 747.444 156.229 747.444 155.266H737.444C737.444 158.989 738.869 162.277 741.486 164.895L748.557 157.824ZM747.444 155.266V73H737.444V155.266H747.444ZM756.662 35.2656C756.662 36.8413 756.19 37.8853 755.314 38.7613L762.386 45.8324C765.259 42.9584 766.662 39.3149 766.662 35.2656H756.662ZM755.314 38.7613C754.438 39.6374 753.394 40.1094 751.819 40.1094V50.1094C755.868 50.1094 759.512 48.7064 762.386 45.8324L755.314 38.7613ZM751.819 40.1094H750.647V50.1094H751.819V40.1094ZM750.647 40.1094C749.071 40.1094 748.027 39.6374 747.151 38.7613L740.08 45.8324C742.954 48.7064 746.598 50.1094 750.647 50.1094V40.1094ZM747.301 38.9183C746.52 38.0658 746.037 36.9704 746.037 35.2656H736.037C736.037 39.1859 737.274 42.778 739.93 45.6755L747.301 38.9183ZM746.037 35.2656V34.5625H736.037V35.2656H746.037ZM746.037 34.5625C746.037 32.9868 746.509 31.9428 747.386 31.0668L740.314 23.9957C737.44 26.8697 736.037 30.5132 736.037 34.5625H746.037ZM747.386 31.0668C748.321 30.1313 749.314 29.7188 750.647 29.7188V19.7188C746.667 19.7188 743.129 21.1812 740.314 23.9957L747.386 31.0668ZM750.647 29.7188H751.819V19.7188H750.647V29.7188ZM751.819 29.7188C753.394 29.7188 754.438 30.1908 755.314 31.0668L762.386 23.9957C759.512 21.1217 755.868 19.7188 751.819 19.7188V29.7188ZM755.314 31.0668C756.19 31.9428 756.662 32.9868 756.662 34.5625H766.662C766.662 30.5132 765.259 26.8697 762.386 23.9957L755.314 31.0668ZM756.662 34.5625V35.2656H766.662V34.5625H756.662Z" fill="black" mask="url(#path-1-outside-1_103_130)"/>
</svg>
