<svg width="819" height="179" viewBox="0 0 819 179" fill="none" xmlns="http://www.w3.org/2000/svg">
<mask id="path-1-outside-1_136_2" maskUnits="userSpaceOnUse" x="4" y="6" width="808" height="169" fill="black">
<rect fill="white" x="4" y="6" width="808" height="169"/>
<path d="M58.08 168.98C51.3333 168.98 44.9533 167.587 38.94 164.8C32.9267 162.013 27.6467 158.2 23.1 153.36C18.5533 148.373 14.96 142.58 12.32 135.98C9.68 129.233 8.36 122.047 8.36 114.42C8.36 107.087 9.68 100.193 12.32 93.74C14.96 87.14 18.5533 81.42 23.1 76.58C27.7933 71.5933 33.1467 67.7067 39.16 64.92C45.1733 62.1333 51.48 60.74 58.08 60.74C65.12 60.74 71.4267 62.1333 77 64.92C82.5733 67.7067 87.2667 71.5933 91.08 76.58C95.04 81.42 98.0467 87.14 100.1 93.74C102.153 100.193 103.253 107.16 103.4 114.64C103.4 122.12 102.373 129.16 100.32 135.76C98.4133 142.213 95.48 147.933 91.52 152.92C87.7067 157.907 82.94 161.867 77.22 164.8C71.6467 167.587 65.2667 168.98 58.08 168.98ZM61.6 143.24C66.7333 143.24 71.28 142.067 75.24 139.72C79.3467 137.227 82.5733 133.853 84.92 129.6C87.4133 125.347 88.66 120.507 88.66 115.08C88.66 109.507 87.4133 104.593 84.92 100.34C82.5733 96.0867 79.3467 92.7133 75.24 90.22C71.28 87.7267 66.7333 86.48 61.6 86.48C56.4667 86.48 51.8467 87.7267 47.74 90.22C43.6333 92.5667 40.3333 95.94 37.84 100.34C35.4933 104.593 34.32 109.507 34.32 115.08C34.32 120.507 35.4933 125.347 37.84 129.6C40.3333 133.853 43.6333 137.227 47.74 139.72C51.9933 142.067 56.6133 143.24 61.6 143.24ZM102.3 168.98C98.1933 168.98 95.1867 168.32 93.28 167C91.3733 165.533 90.1267 163.26 89.54 160.18V24.66C89.54 22.1667 89.6867 19.9667 89.98 18.06C90.42 16.0067 91.52 14.3933 93.28 13.22C95.1867 11.9 98.12 11.24 102.08 11.24C106.333 11.24 109.34 11.8267 111.1 13C112.86 14.1733 113.96 15.7867 114.4 17.84C114.987 19.7467 115.28 21.9467 115.28 24.44V155.56C115.28 158.053 115.06 160.327 114.62 162.38C114.18 164.433 113.007 166.047 111.1 167.22C109.34 168.393 106.407 168.98 102.3 168.98ZM156.463 169.2C152.503 169.2 149.57 168.54 147.663 167.22C145.756 166.047 144.583 164.507 144.143 162.6C143.703 160.547 143.483 158.273 143.483 155.78V73.94C143.483 71.5933 143.703 69.4667 144.143 67.56C144.73 65.5067 145.903 63.8933 147.663 62.72C149.57 61.5467 152.576 60.96 156.683 60.96C160.79 60.96 163.723 61.5467 165.483 62.72C167.39 63.8933 168.563 65.5067 169.003 67.56C169.443 69.6133 169.663 71.8867 169.663 74.38V156C169.663 158.493 169.443 160.767 169.003 162.82C168.563 164.727 167.39 166.267 165.483 167.44C163.723 168.613 160.716 169.2 156.463 169.2ZM156.463 39.62C152.21 39.62 149.056 39.0333 147.003 37.86C145.096 36.54 143.85 34.78 143.263 32.58C142.823 30.38 142.603 27.96 142.603 25.32C142.603 22.5333 142.823 20.1133 143.263 18.06C143.85 16.0067 145.17 14.3933 147.223 13.22C149.276 11.9 152.43 11.24 156.683 11.24C161.083 11.24 164.236 11.9 166.143 13.22C168.05 14.54 169.296 16.3 169.883 18.5C170.47 20.5533 170.763 22.9733 170.763 25.76C170.763 28.2533 170.47 30.6 169.883 32.8C169.296 35 168.05 36.6867 166.143 37.86C164.236 39.0333 161.01 39.62 156.463 39.62ZM247.191 169.64C244.111 169.64 241.544 169.127 239.491 168.1C237.437 167.073 235.824 165.387 234.651 163.04L194.611 79.22C192.411 74.82 191.824 71.3 192.851 68.66C193.877 66.02 196.517 63.6733 200.771 61.62C205.171 59.42 208.691 58.6867 211.331 59.42C213.971 60.1533 216.317 62.8667 218.371 67.56L247.191 135.1L275.571 68.88C277.624 64.04 279.971 61.0333 282.611 59.86C285.251 58.54 289.064 59.1267 294.051 61.62C299.037 64.1133 301.677 66.9 301.971 69.98C302.264 72.9133 301.457 76.2867 299.551 80.1L259.731 163.04C258.557 165.24 256.944 166.853 254.891 167.88C252.837 169.053 250.271 169.64 247.191 169.64ZM369.402 170.52C359.869 170.52 351.509 168.98 344.322 165.9C337.282 162.82 331.342 158.64 326.502 153.36C321.809 147.933 318.216 141.92 315.722 135.32C313.376 128.573 312.202 121.607 312.202 114.42C312.202 103.86 314.622 94.4733 319.462 86.26C324.302 78.0467 330.976 71.5933 339.482 66.9C348.136 62.2067 358.036 59.86 369.182 59.86C377.102 59.86 384.069 61.1067 390.082 63.6C396.096 66.0933 401.082 69.3933 405.042 73.5C409.149 77.46 412.229 81.86 414.282 86.7C416.482 91.54 417.582 96.2333 417.582 100.78C417.582 108.553 415.676 114.2 411.862 117.72C408.196 121.24 403.576 123 398.002 123H339.922C340.069 127.987 341.609 132.313 344.542 135.98C347.622 139.647 351.436 142.507 355.982 144.56C360.676 146.467 365.442 147.42 370.282 147.42C373.949 147.42 377.176 147.2 379.962 146.76C382.896 146.32 385.389 145.807 387.442 145.22C389.496 144.487 391.256 143.753 392.722 143.02C394.336 142.287 395.802 141.627 397.122 141.04C398.442 140.453 399.689 140.087 400.862 139.94C402.476 139.793 404.089 140.16 405.702 141.04C407.316 141.92 408.636 143.46 409.662 145.66C410.542 147.127 411.129 148.52 411.422 149.84C411.862 151.013 412.082 152.187 412.082 153.36C412.082 156.293 410.322 159.08 406.802 161.72C403.282 164.213 398.296 166.267 391.842 167.88C385.536 169.64 378.056 170.52 369.402 170.52ZM339.922 107.38H385.022C387.516 107.38 389.422 107.013 390.742 106.28C392.062 105.4 392.722 103.64 392.722 101C392.722 97.6267 391.696 94.62 389.642 91.98C387.589 89.1933 384.802 87.0667 381.282 85.6C377.762 83.9867 373.656 83.18 368.962 83.18C363.536 83.18 358.622 84.28 354.222 86.48C349.822 88.5333 346.302 91.3933 343.662 95.06C341.169 98.7267 339.922 102.833 339.922 107.38ZM453.016 169.2C449.056 169.2 446.123 168.54 444.216 167.22C442.456 166.047 441.356 164.433 440.916 162.38C440.476 160.327 440.256 158.053 440.256 155.56V73.94C440.256 71.3 440.476 69.0267 440.916 67.12C441.356 65.0667 442.456 63.5267 444.216 62.5C446.123 61.3267 449.129 60.74 453.236 60.74C457.196 60.74 460.056 61.2533 461.816 62.28C463.723 63.3067 464.896 64.6267 465.336 66.24C465.923 67.7067 466.216 69.1733 466.216 70.64L464.456 74.6C465.189 73.4267 466.216 72.0333 467.536 70.42C468.856 68.66 470.616 66.9733 472.816 65.36C475.016 63.6 477.656 62.2067 480.736 61.18C483.816 60.0067 487.483 59.42 491.736 59.42C493.496 59.42 495.329 59.64 497.236 60.08C499.289 60.3733 501.269 60.8867 503.176 61.62C505.229 62.2067 507.063 63.0133 508.676 64.04C510.289 65.0667 511.536 66.3133 512.416 67.78C513.296 69.1 513.736 70.64 513.736 72.4C513.736 77.0933 512.563 81.0533 510.216 84.28C507.869 87.5067 505.083 89.12 501.856 89.12C499.656 89.12 498.043 88.9 497.016 88.46C495.989 88.02 495.109 87.5067 494.376 86.92C493.789 86.3333 492.836 85.82 491.516 85.38C490.343 84.94 488.436 84.72 485.796 84.72C483.596 84.72 481.323 85.0867 478.976 85.82C476.776 86.5533 474.723 87.6533 472.816 89.12C470.909 90.5867 469.369 92.4933 468.196 94.84C467.023 97.04 466.436 99.6067 466.436 102.54V156C466.436 158.493 466.216 160.767 465.776 162.82C465.336 164.727 464.163 166.267 462.256 167.44C460.349 168.613 457.269 169.2 453.016 169.2ZM567.779 170.52C563.965 170.52 559.932 170.08 555.679 169.2C551.425 168.467 547.319 167.367 543.359 165.9C539.399 164.287 535.952 162.453 533.019 160.4C530.232 158.2 528.472 155.78 527.739 153.14C527.152 151.673 526.932 150.28 527.079 148.96C527.225 147.493 527.665 146.027 528.399 144.56C529.132 142.947 530.232 141.333 531.699 139.72C533.019 138.107 534.339 137.227 535.659 137.08C537.125 136.787 538.959 137.227 541.159 138.4C543.065 139.133 545.119 140.087 547.319 141.26C549.665 142.433 552.012 143.607 554.359 144.78C556.852 145.953 559.345 146.907 561.839 147.64C564.479 148.373 567.045 148.74 569.539 148.74C574.965 148.74 579.292 147.86 582.519 146.1C585.745 144.193 587.359 141.553 587.359 138.18C587.359 136.273 586.845 134.587 585.819 133.12C584.792 131.653 583.399 130.48 581.639 129.6C580.025 128.573 578.045 127.693 575.699 126.96C573.499 126.08 571.079 125.347 568.439 124.76C565.945 124.027 563.305 123.22 560.519 122.34C556.852 121.313 553.185 120.067 549.519 118.6C545.852 117.133 542.552 115.227 539.619 112.88C536.832 110.533 534.559 107.6 532.799 104.08C531.039 100.56 530.159 96.16 530.159 90.88C530.159 84.28 531.699 78.7067 534.779 74.16C538.005 69.4667 542.625 65.8733 548.639 63.38C554.652 60.8867 561.912 59.64 570.419 59.64C573.352 59.64 576.139 59.86 578.779 60.3C581.565 60.74 584.205 61.4 586.699 62.28C589.339 63.0133 591.832 63.9667 594.179 65.14C596.672 66.3133 599.019 67.6333 601.219 69.1C604.885 71.1533 606.792 73.5733 606.939 76.36C607.085 79 606.059 81.86 603.859 84.94C602.245 86.9933 600.632 88.46 599.019 89.34C597.405 90.0733 595.719 90.0733 593.959 89.34C591.612 88.1667 589.045 86.92 586.259 85.6C583.619 84.1333 580.832 82.8867 577.899 81.86C575.112 80.8333 572.179 80.32 569.099 80.32C566.165 80.32 563.525 80.76 561.179 81.64C558.832 82.52 557.072 83.7667 555.899 85.38C554.725 86.9933 554.139 88.9 554.139 91.1C554.139 93.1533 554.725 94.84 555.899 96.16C557.072 97.48 558.612 98.58 560.519 99.46C562.425 100.34 564.699 101.147 567.339 101.88C569.979 102.467 572.765 103.053 575.699 103.64C579.805 104.52 583.985 105.62 588.239 106.94C592.492 108.26 596.379 110.093 599.899 112.44C603.565 114.787 606.499 117.94 608.699 121.9C610.899 125.713 611.999 130.7 611.999 136.86C611.999 147.567 608.039 155.853 600.119 161.72C592.345 167.587 581.565 170.52 567.779 170.52ZM649.615 169.2C645.655 169.2 642.722 168.54 640.815 167.22C638.909 166.047 637.735 164.507 637.295 162.6C636.855 160.547 636.635 158.273 636.635 155.78V73.94C636.635 71.5933 636.855 69.4667 637.295 67.56C637.882 65.5067 639.055 63.8933 640.815 62.72C642.722 61.5467 645.729 60.96 649.835 60.96C653.942 60.96 656.875 61.5467 658.635 62.72C660.542 63.8933 661.715 65.5067 662.155 67.56C662.595 69.6133 662.815 71.8867 662.815 74.38V156C662.815 158.493 662.595 160.767 662.155 162.82C661.715 164.727 660.542 166.267 658.635 167.44C656.875 168.613 653.869 169.2 649.615 169.2ZM649.615 39.62C645.362 39.62 642.209 39.0333 640.155 37.86C638.249 36.54 637.002 34.78 636.415 32.58C635.975 30.38 635.755 27.96 635.755 25.32C635.755 22.5333 635.975 20.1133 636.415 18.06C637.002 16.0067 638.322 14.3933 640.375 13.22C642.429 11.9 645.582 11.24 649.835 11.24C654.235 11.24 657.389 11.9 659.295 13.22C661.202 14.54 662.449 16.3 663.035 18.5C663.622 20.5533 663.915 22.9733 663.915 25.76C663.915 28.2533 663.622 30.6 663.035 32.8C662.449 35 661.202 36.6867 659.295 37.86C657.389 39.0333 654.162 39.62 649.615 39.62ZM714.01 169.2C710.05 169.2 707.117 168.613 705.21 167.44C703.45 166.267 702.35 164.653 701.91 162.6C701.47 160.4 701.25 158.127 701.25 155.78V48.86C701.25 43.4333 701.983 38.4467 703.45 33.9C704.917 29.2067 707.263 25.1733 710.49 21.8C713.717 18.4267 717.897 15.7867 723.03 13.88C728.163 11.8267 734.397 10.8 741.73 10.8C744.223 10.8 746.423 11.0933 748.33 11.68C750.383 12.12 751.997 13.22 753.17 14.98C754.49 16.74 755.15 19.7467 755.15 24C755.15 27.96 754.49 30.8933 753.17 32.8C751.997 34.7067 750.383 35.88 748.33 36.32C746.277 36.76 744.003 36.98 741.51 36.98C739.017 36.98 736.817 37.1267 734.91 37.42C733.15 37.5667 731.683 38.0067 730.51 38.74C729.483 39.4733 728.677 40.6467 728.09 42.26C727.65 43.8733 727.43 45.9267 727.43 48.42V156.22C727.43 158.567 727.137 160.767 726.55 162.82C726.11 164.727 724.937 166.267 723.03 167.44C721.123 168.613 718.117 169.2 714.01 169.2ZM692.23 62.94L714.89 63.16L745.25 62.28C747.743 62.28 749.943 62.5733 751.85 63.16C753.903 63.6 755.517 64.7733 756.69 66.68C757.863 68.44 758.45 71.3733 758.45 75.48C758.45 79.2933 757.863 82.1533 756.69 84.06C755.517 85.9667 753.977 87.2133 752.07 87.8C750.163 88.24 747.963 88.46 745.47 88.46L715.99 88.02L691.57 88.24C687.903 88.0933 685.337 87.0667 683.87 85.16C682.55 83.1067 681.89 79.8067 681.89 75.26C681.89 71.0067 682.697 67.9267 684.31 66.02C686.07 63.9667 688.71 62.94 692.23 62.94ZM793.122 169.2C789.162 169.2 786.229 168.54 784.322 167.22C782.416 166.047 781.242 164.507 780.802 162.6C780.362 160.547 780.142 158.273 780.142 155.78V73.94C780.142 71.5933 780.362 69.4667 780.802 67.56C781.389 65.5067 782.562 63.8933 784.322 62.72C786.229 61.5467 789.236 60.96 793.342 60.96C797.449 60.96 800.382 61.5467 802.142 62.72C804.049 63.8933 805.222 65.5067 805.662 67.56C806.102 69.6133 806.322 71.8867 806.322 74.38V156C806.322 158.493 806.102 160.767 805.662 162.82C805.222 164.727 804.049 166.267 802.142 167.44C800.382 168.613 797.376 169.2 793.122 169.2ZM793.122 39.62C788.869 39.62 785.716 39.0333 783.662 37.86C781.756 36.54 780.509 34.78 779.922 32.58C779.482 30.38 779.262 27.96 779.262 25.32C779.262 22.5333 779.482 20.1133 779.922 18.06C780.509 16.0067 781.829 14.3933 783.882 13.22C785.936 11.9 789.089 11.24 793.342 11.24C797.742 11.24 800.896 11.9 802.802 13.22C804.709 14.54 805.956 16.3 806.542 18.5C807.129 20.5533 807.422 22.9733 807.422 25.76C807.422 28.2533 807.129 30.6 806.542 32.8C805.956 35 804.709 36.6867 802.802 37.86C800.896 39.0333 797.669 39.62 793.122 39.62Z"/>
</mask>
<path d="M58.08 168.98C51.3333 168.98 44.9533 167.587 38.94 164.8C32.9267 162.013 27.6467 158.2 23.1 153.36C18.5533 148.373 14.96 142.58 12.32 135.98C9.68 129.233 8.36 122.047 8.36 114.42C8.36 107.087 9.68 100.193 12.32 93.74C14.96 87.14 18.5533 81.42 23.1 76.58C27.7933 71.5933 33.1467 67.7067 39.16 64.92C45.1733 62.1333 51.48 60.74 58.08 60.74C65.12 60.74 71.4267 62.1333 77 64.92C82.5733 67.7067 87.2667 71.5933 91.08 76.58C95.04 81.42 98.0467 87.14 100.1 93.74C102.153 100.193 103.253 107.16 103.4 114.64C103.4 122.12 102.373 129.16 100.32 135.76C98.4133 142.213 95.48 147.933 91.52 152.92C87.7067 157.907 82.94 161.867 77.22 164.8C71.6467 167.587 65.2667 168.98 58.08 168.98ZM61.6 143.24C66.7333 143.24 71.28 142.067 75.24 139.72C79.3467 137.227 82.5733 133.853 84.92 129.6C87.4133 125.347 88.66 120.507 88.66 115.08C88.66 109.507 87.4133 104.593 84.92 100.34C82.5733 96.0867 79.3467 92.7133 75.24 90.22C71.28 87.7267 66.7333 86.48 61.6 86.48C56.4667 86.48 51.8467 87.7267 47.74 90.22C43.6333 92.5667 40.3333 95.94 37.84 100.34C35.4933 104.593 34.32 109.507 34.32 115.08C34.32 120.507 35.4933 125.347 37.84 129.6C40.3333 133.853 43.6333 137.227 47.74 139.72C51.9933 142.067 56.6133 143.24 61.6 143.24ZM102.3 168.98C98.1933 168.98 95.1867 168.32 93.28 167C91.3733 165.533 90.1267 163.26 89.54 160.18V24.66C89.54 22.1667 89.6867 19.9667 89.98 18.06C90.42 16.0067 91.52 14.3933 93.28 13.22C95.1867 11.9 98.12 11.24 102.08 11.24C106.333 11.24 109.34 11.8267 111.1 13C112.86 14.1733 113.96 15.7867 114.4 17.84C114.987 19.7467 115.28 21.9467 115.28 24.44V155.56C115.28 158.053 115.06 160.327 114.62 162.38C114.18 164.433 113.007 166.047 111.1 167.22C109.34 168.393 106.407 168.98 102.3 168.98ZM156.463 169.2C152.503 169.2 149.57 168.54 147.663 167.22C145.756 166.047 144.583 164.507 144.143 162.6C143.703 160.547 143.483 158.273 143.483 155.78V73.94C143.483 71.5933 143.703 69.4667 144.143 67.56C144.73 65.5067 145.903 63.8933 147.663 62.72C149.57 61.5467 152.576 60.96 156.683 60.96C160.79 60.96 163.723 61.5467 165.483 62.72C167.39 63.8933 168.563 65.5067 169.003 67.56C169.443 69.6133 169.663 71.8867 169.663 74.38V156C169.663 158.493 169.443 160.767 169.003 162.82C168.563 164.727 167.39 166.267 165.483 167.44C163.723 168.613 160.716 169.2 156.463 169.2ZM156.463 39.62C152.21 39.62 149.056 39.0333 147.003 37.86C145.096 36.54 143.85 34.78 143.263 32.58C142.823 30.38 142.603 27.96 142.603 25.32C142.603 22.5333 142.823 20.1133 143.263 18.06C143.85 16.0067 145.17 14.3933 147.223 13.22C149.276 11.9 152.43 11.24 156.683 11.24C161.083 11.24 164.236 11.9 166.143 13.22C168.05 14.54 169.296 16.3 169.883 18.5C170.47 20.5533 170.763 22.9733 170.763 25.76C170.763 28.2533 170.47 30.6 169.883 32.8C169.296 35 168.05 36.6867 166.143 37.86C164.236 39.0333 161.01 39.62 156.463 39.62ZM247.191 169.64C244.111 169.64 241.544 169.127 239.491 168.1C237.437 167.073 235.824 165.387 234.651 163.04L194.611 79.22C192.411 74.82 191.824 71.3 192.851 68.66C193.877 66.02 196.517 63.6733 200.771 61.62C205.171 59.42 208.691 58.6867 211.331 59.42C213.971 60.1533 216.317 62.8667 218.371 67.56L247.191 135.1L275.571 68.88C277.624 64.04 279.971 61.0333 282.611 59.86C285.251 58.54 289.064 59.1267 294.051 61.62C299.037 64.1133 301.677 66.9 301.971 69.98C302.264 72.9133 301.457 76.2867 299.551 80.1L259.731 163.04C258.557 165.24 256.944 166.853 254.891 167.88C252.837 169.053 250.271 169.64 247.191 169.64ZM369.402 170.52C359.869 170.52 351.509 168.98 344.322 165.9C337.282 162.82 331.342 158.64 326.502 153.36C321.809 147.933 318.216 141.92 315.722 135.32C313.376 128.573 312.202 121.607 312.202 114.42C312.202 103.86 314.622 94.4733 319.462 86.26C324.302 78.0467 330.976 71.5933 339.482 66.9C348.136 62.2067 358.036 59.86 369.182 59.86C377.102 59.86 384.069 61.1067 390.082 63.6C396.096 66.0933 401.082 69.3933 405.042 73.5C409.149 77.46 412.229 81.86 414.282 86.7C416.482 91.54 417.582 96.2333 417.582 100.78C417.582 108.553 415.676 114.2 411.862 117.72C408.196 121.24 403.576 123 398.002 123H339.922C340.069 127.987 341.609 132.313 344.542 135.98C347.622 139.647 351.436 142.507 355.982 144.56C360.676 146.467 365.442 147.42 370.282 147.42C373.949 147.42 377.176 147.2 379.962 146.76C382.896 146.32 385.389 145.807 387.442 145.22C389.496 144.487 391.256 143.753 392.722 143.02C394.336 142.287 395.802 141.627 397.122 141.04C398.442 140.453 399.689 140.087 400.862 139.94C402.476 139.793 404.089 140.16 405.702 141.04C407.316 141.92 408.636 143.46 409.662 145.66C410.542 147.127 411.129 148.52 411.422 149.84C411.862 151.013 412.082 152.187 412.082 153.36C412.082 156.293 410.322 159.08 406.802 161.72C403.282 164.213 398.296 166.267 391.842 167.88C385.536 169.64 378.056 170.52 369.402 170.52ZM339.922 107.38H385.022C387.516 107.38 389.422 107.013 390.742 106.28C392.062 105.4 392.722 103.64 392.722 101C392.722 97.6267 391.696 94.62 389.642 91.98C387.589 89.1933 384.802 87.0667 381.282 85.6C377.762 83.9867 373.656 83.18 368.962 83.18C363.536 83.18 358.622 84.28 354.222 86.48C349.822 88.5333 346.302 91.3933 343.662 95.06C341.169 98.7267 339.922 102.833 339.922 107.38ZM453.016 169.2C449.056 169.2 446.123 168.54 444.216 167.22C442.456 166.047 441.356 164.433 440.916 162.38C440.476 160.327 440.256 158.053 440.256 155.56V73.94C440.256 71.3 440.476 69.0267 440.916 67.12C441.356 65.0667 442.456 63.5267 444.216 62.5C446.123 61.3267 449.129 60.74 453.236 60.74C457.196 60.74 460.056 61.2533 461.816 62.28C463.723 63.3067 464.896 64.6267 465.336 66.24C465.923 67.7067 466.216 69.1733 466.216 70.64L464.456 74.6C465.189 73.4267 466.216 72.0333 467.536 70.42C468.856 68.66 470.616 66.9733 472.816 65.36C475.016 63.6 477.656 62.2067 480.736 61.18C483.816 60.0067 487.483 59.42 491.736 59.42C493.496 59.42 495.329 59.64 497.236 60.08C499.289 60.3733 501.269 60.8867 503.176 61.62C505.229 62.2067 507.063 63.0133 508.676 64.04C510.289 65.0667 511.536 66.3133 512.416 67.78C513.296 69.1 513.736 70.64 513.736 72.4C513.736 77.0933 512.563 81.0533 510.216 84.28C507.869 87.5067 505.083 89.12 501.856 89.12C499.656 89.12 498.043 88.9 497.016 88.46C495.989 88.02 495.109 87.5067 494.376 86.92C493.789 86.3333 492.836 85.82 491.516 85.38C490.343 84.94 488.436 84.72 485.796 84.72C483.596 84.72 481.323 85.0867 478.976 85.82C476.776 86.5533 474.723 87.6533 472.816 89.12C470.909 90.5867 469.369 92.4933 468.196 94.84C467.023 97.04 466.436 99.6067 466.436 102.54V156C466.436 158.493 466.216 160.767 465.776 162.82C465.336 164.727 464.163 166.267 462.256 167.44C460.349 168.613 457.269 169.2 453.016 169.2ZM567.779 170.52C563.965 170.52 559.932 170.08 555.679 169.2C551.425 168.467 547.319 167.367 543.359 165.9C539.399 164.287 535.952 162.453 533.019 160.4C530.232 158.2 528.472 155.78 527.739 153.14C527.152 151.673 526.932 150.28 527.079 148.96C527.225 147.493 527.665 146.027 528.399 144.56C529.132 142.947 530.232 141.333 531.699 139.72C533.019 138.107 534.339 137.227 535.659 137.08C537.125 136.787 538.959 137.227 541.159 138.4C543.065 139.133 545.119 140.087 547.319 141.26C549.665 142.433 552.012 143.607 554.359 144.78C556.852 145.953 559.345 146.907 561.839 147.64C564.479 148.373 567.045 148.74 569.539 148.74C574.965 148.74 579.292 147.86 582.519 146.1C585.745 144.193 587.359 141.553 587.359 138.18C587.359 136.273 586.845 134.587 585.819 133.12C584.792 131.653 583.399 130.48 581.639 129.6C580.025 128.573 578.045 127.693 575.699 126.96C573.499 126.08 571.079 125.347 568.439 124.76C565.945 124.027 563.305 123.22 560.519 122.34C556.852 121.313 553.185 120.067 549.519 118.6C545.852 117.133 542.552 115.227 539.619 112.88C536.832 110.533 534.559 107.6 532.799 104.08C531.039 100.56 530.159 96.16 530.159 90.88C530.159 84.28 531.699 78.7067 534.779 74.16C538.005 69.4667 542.625 65.8733 548.639 63.38C554.652 60.8867 561.912 59.64 570.419 59.64C573.352 59.64 576.139 59.86 578.779 60.3C581.565 60.74 584.205 61.4 586.699 62.28C589.339 63.0133 591.832 63.9667 594.179 65.14C596.672 66.3133 599.019 67.6333 601.219 69.1C604.885 71.1533 606.792 73.5733 606.939 76.36C607.085 79 606.059 81.86 603.859 84.94C602.245 86.9933 600.632 88.46 599.019 89.34C597.405 90.0733 595.719 90.0733 593.959 89.34C591.612 88.1667 589.045 86.92 586.259 85.6C583.619 84.1333 580.832 82.8867 577.899 81.86C575.112 80.8333 572.179 80.32 569.099 80.32C566.165 80.32 563.525 80.76 561.179 81.64C558.832 82.52 557.072 83.7667 555.899 85.38C554.725 86.9933 554.139 88.9 554.139 91.1C554.139 93.1533 554.725 94.84 555.899 96.16C557.072 97.48 558.612 98.58 560.519 99.46C562.425 100.34 564.699 101.147 567.339 101.88C569.979 102.467 572.765 103.053 575.699 103.64C579.805 104.52 583.985 105.62 588.239 106.94C592.492 108.26 596.379 110.093 599.899 112.44C603.565 114.787 606.499 117.94 608.699 121.9C610.899 125.713 611.999 130.7 611.999 136.86C611.999 147.567 608.039 155.853 600.119 161.72C592.345 167.587 581.565 170.52 567.779 170.52ZM649.615 169.2C645.655 169.2 642.722 168.54 640.815 167.22C638.909 166.047 637.735 164.507 637.295 162.6C636.855 160.547 636.635 158.273 636.635 155.78V73.94C636.635 71.5933 636.855 69.4667 637.295 67.56C637.882 65.5067 639.055 63.8933 640.815 62.72C642.722 61.5467 645.729 60.96 649.835 60.96C653.942 60.96 656.875 61.5467 658.635 62.72C660.542 63.8933 661.715 65.5067 662.155 67.56C662.595 69.6133 662.815 71.8867 662.815 74.38V156C662.815 158.493 662.595 160.767 662.155 162.82C661.715 164.727 660.542 166.267 658.635 167.44C656.875 168.613 653.869 169.2 649.615 169.2ZM649.615 39.62C645.362 39.62 642.209 39.0333 640.155 37.86C638.249 36.54 637.002 34.78 636.415 32.58C635.975 30.38 635.755 27.96 635.755 25.32C635.755 22.5333 635.975 20.1133 636.415 18.06C637.002 16.0067 638.322 14.3933 640.375 13.22C642.429 11.9 645.582 11.24 649.835 11.24C654.235 11.24 657.389 11.9 659.295 13.22C661.202 14.54 662.449 16.3 663.035 18.5C663.622 20.5533 663.915 22.9733 663.915 25.76C663.915 28.2533 663.622 30.6 663.035 32.8C662.449 35 661.202 36.6867 659.295 37.86C657.389 39.0333 654.162 39.62 649.615 39.62ZM714.01 169.2C710.05 169.2 707.117 168.613 705.21 167.44C703.45 166.267 702.35 164.653 701.91 162.6C701.47 160.4 701.25 158.127 701.25 155.78V48.86C701.25 43.4333 701.983 38.4467 703.45 33.9C704.917 29.2067 707.263 25.1733 710.49 21.8C713.717 18.4267 717.897 15.7867 723.03 13.88C728.163 11.8267 734.397 10.8 741.73 10.8C744.223 10.8 746.423 11.0933 748.33 11.68C750.383 12.12 751.997 13.22 753.17 14.98C754.49 16.74 755.15 19.7467 755.15 24C755.15 27.96 754.49 30.8933 753.17 32.8C751.997 34.7067 750.383 35.88 748.33 36.32C746.277 36.76 744.003 36.98 741.51 36.98C739.017 36.98 736.817 37.1267 734.91 37.42C733.15 37.5667 731.683 38.0067 730.51 38.74C729.483 39.4733 728.677 40.6467 728.09 42.26C727.65 43.8733 727.43 45.9267 727.43 48.42V156.22C727.43 158.567 727.137 160.767 726.55 162.82C726.11 164.727 724.937 166.267 723.03 167.44C721.123 168.613 718.117 169.2 714.01 169.2ZM692.23 62.94L714.89 63.16L745.25 62.28C747.743 62.28 749.943 62.5733 751.85 63.16C753.903 63.6 755.517 64.7733 756.69 66.68C757.863 68.44 758.45 71.3733 758.45 75.48C758.45 79.2933 757.863 82.1533 756.69 84.06C755.517 85.9667 753.977 87.2133 752.07 87.8C750.163 88.24 747.963 88.46 745.47 88.46L715.99 88.02L691.57 88.24C687.903 88.0933 685.337 87.0667 683.87 85.16C682.55 83.1067 681.89 79.8067 681.89 75.26C681.89 71.0067 682.697 67.9267 684.31 66.02C686.07 63.9667 688.71 62.94 692.23 62.94ZM793.122 169.2C789.162 169.2 786.229 168.54 784.322 167.22C782.416 166.047 781.242 164.507 780.802 162.6C780.362 160.547 780.142 158.273 780.142 155.78V73.94C780.142 71.5933 780.362 69.4667 780.802 67.56C781.389 65.5067 782.562 63.8933 784.322 62.72C786.229 61.5467 789.236 60.96 793.342 60.96C797.449 60.96 800.382 61.5467 802.142 62.72C804.049 63.8933 805.222 65.5067 805.662 67.56C806.102 69.6133 806.322 71.8867 806.322 74.38V156C806.322 158.493 806.102 160.767 805.662 162.82C805.222 164.727 804.049 166.267 802.142 167.44C800.382 168.613 797.376 169.2 793.122 169.2ZM793.122 39.62C788.869 39.62 785.716 39.0333 783.662 37.86C781.756 36.54 780.509 34.78 779.922 32.58C779.482 30.38 779.262 27.96 779.262 25.32C779.262 22.5333 779.482 20.1133 779.922 18.06C780.509 16.0067 781.829 14.3933 783.882 13.22C785.936 11.9 789.089 11.24 793.342 11.24C797.742 11.24 800.896 11.9 802.802 13.22C804.709 14.54 805.956 16.3 806.542 18.5C807.129 20.5533 807.422 22.9733 807.422 25.76C807.422 28.2533 807.129 30.6 806.542 32.8C805.956 35 804.709 36.6867 802.802 37.86C800.896 39.0333 797.669 39.62 793.122 39.62Z" fill="black"/>
<path d="M38.94 164.8L37.2582 168.429L37.2582 168.429L38.94 164.8ZM23.1 153.36L20.1442 156.055L20.1642 156.077L20.1846 156.099L23.1 153.36ZM12.32 135.98L8.59503 137.438L8.60051 137.452L8.60609 137.466L12.32 135.98ZM12.32 93.74L16.0222 95.2545L16.0281 95.2401L16.0339 95.2256L12.32 93.74ZM23.1 76.58L20.1872 73.8385L20.1846 73.8413L23.1 76.58ZM39.16 64.92L37.4782 61.2908L37.4782 61.2908L39.16 64.92ZM77 64.92L78.7889 61.3423L78.7889 61.3423L77 64.92ZM91.08 76.58L87.9026 79.0098L87.9425 79.062L87.9842 79.1129L91.08 76.58ZM100.1 93.74L96.2806 94.9283L96.2844 94.9406L96.2883 94.9528L100.1 93.74ZM103.4 114.64H107.4V114.601L107.399 114.562L103.4 114.64ZM100.32 135.76L96.5006 134.572L96.4921 134.599L96.4839 134.627L100.32 135.76ZM91.52 152.92L88.3876 150.432L88.3648 150.461L88.3426 150.49L91.52 152.92ZM77.22 164.8L79.0089 168.378L79.0271 168.369L79.0453 168.359L77.22 164.8ZM75.24 139.72L77.2792 143.161L77.2976 143.15L77.3159 143.139L75.24 139.72ZM84.92 129.6L81.4692 127.577L81.4429 127.622L81.4177 127.668L84.92 129.6ZM84.92 100.34L81.4177 102.272L81.4429 102.318L81.4692 102.363L84.92 100.34ZM75.24 90.22L73.1087 93.6049L73.1363 93.6223L73.1641 93.6391L75.24 90.22ZM47.74 90.22L49.7246 93.693L49.7706 93.6667L49.8159 93.6391L47.74 90.22ZM37.84 100.34L34.3599 98.3679L34.3487 98.3878L34.3377 98.4077L37.84 100.34ZM37.84 129.6L34.3377 131.532L34.3629 131.578L34.3892 131.623L37.84 129.6ZM47.74 139.72L45.6641 143.139L45.735 143.182L45.8077 143.222L47.74 139.72ZM93.28 167L90.8412 170.17L90.9207 170.232L91.0032 170.289L93.28 167ZM89.54 160.18H85.54V160.558L85.6106 160.928L89.54 160.18ZM89.98 18.06L86.0688 17.2219L86.0443 17.3362L86.0265 17.4518L89.98 18.06ZM93.28 13.22L95.4988 16.5482L95.528 16.5287L95.5568 16.5088L93.28 13.22ZM111.1 13L113.319 9.67179L113.319 9.67179L111.1 13ZM114.4 17.84L110.489 18.6781L110.525 18.8492L110.577 19.0163L114.4 17.84ZM114.62 162.38L110.709 161.542L110.709 161.542L114.62 162.38ZM111.1 167.22L109.004 163.813L108.942 163.851L108.881 163.892L111.1 167.22ZM58.08 164.98C51.9035 164.98 46.0985 163.709 40.6218 161.171L37.2582 168.429C43.8082 171.465 50.7632 172.98 58.08 172.98V164.98ZM40.6218 161.171C35.0738 158.6 30.2123 155.089 26.0154 150.621L20.1846 156.099C25.081 161.311 30.7795 165.427 37.2582 168.429L40.6218 161.171ZM26.0558 150.665C21.8493 146.051 18.5054 140.673 16.0339 134.494L8.60609 137.466C11.4146 144.487 15.2574 150.695 20.1442 156.055L26.0558 150.665ZM16.045 134.522C13.5962 128.264 12.36 121.575 12.36 114.42H4.36C4.36 122.519 5.76382 130.202 8.59503 137.438L16.045 134.522ZM12.36 114.42C12.36 107.579 13.5889 101.203 16.0222 95.2545L8.61781 92.2255C5.77107 99.1842 4.36 106.595 4.36 114.42H12.36ZM16.0339 95.2256C18.5015 89.0565 21.8343 83.7695 26.0154 79.3187L20.1846 73.8413C15.2723 79.0705 11.4185 85.2235 8.60609 92.2544L16.0339 95.2256ZM26.0128 79.3215C30.3681 74.694 35.3072 71.1141 40.8418 68.5492L37.4782 61.2908C30.9862 64.2992 25.2186 68.4927 20.1872 73.8385L26.0128 79.3215ZM40.8418 68.5492C46.3304 66.0058 52.0634 64.74 58.08 64.74V56.74C50.8966 56.74 44.0162 58.2609 37.4782 61.2908L40.8418 68.5492ZM58.08 64.74C64.5803 64.74 70.2616 66.0229 75.2112 68.4977L78.7889 61.3423C72.5917 58.2437 65.6597 56.74 58.08 56.74V64.74ZM75.2112 68.4977C80.2362 71.0102 84.4559 74.5026 87.9026 79.0098L94.2574 74.1502C90.0774 68.684 84.9105 64.4031 78.7889 61.3423L75.2112 68.4977ZM87.9842 79.1129C91.5862 83.5155 94.3638 88.7671 96.2806 94.9283L103.919 92.5517C101.73 85.5129 98.4938 79.3245 94.1758 74.047L87.9842 79.1129ZM96.2883 94.9528C98.2133 101.003 99.2609 107.584 99.4008 114.718L107.399 114.562C107.246 106.736 106.093 99.3838 103.912 92.5272L96.2883 94.9528ZM99.4 114.64C99.4 121.75 98.4248 128.387 96.5006 134.572L104.139 136.948C106.322 129.933 107.4 122.49 107.4 114.64H99.4ZM96.4839 134.627C94.7144 140.616 92.0104 145.87 88.3876 150.432L94.6524 155.408C98.9496 149.996 102.112 143.811 104.156 136.893L96.4839 134.627ZM88.3426 150.49C84.8993 154.993 80.5988 158.572 75.3947 161.241L79.0453 168.359C85.2812 165.161 90.5141 160.82 94.6974 155.35L88.3426 150.49ZM75.4311 161.222C70.4927 163.692 64.7411 164.98 58.08 164.98V172.98C65.7923 172.98 72.8007 171.482 79.0089 168.378L75.4311 161.222ZM61.6 147.24C67.3661 147.24 72.6328 145.915 77.2792 143.161L73.2008 136.279C69.9272 138.219 66.1006 139.24 61.6 139.24V147.24ZM77.3159 143.139C82.0267 140.279 85.7421 136.39 88.4223 131.532L81.4177 127.668C79.4046 131.316 76.6667 134.174 73.1641 136.301L77.3159 143.139ZM88.3708 131.623C91.2593 126.696 92.66 121.144 92.66 115.08H84.66C84.66 119.869 83.5674 123.998 81.4692 127.577L88.3708 131.623ZM92.66 115.08C92.66 108.89 91.2688 103.261 88.3708 98.3171L81.4692 102.363C83.5579 105.926 84.66 110.123 84.66 115.08H92.66ZM88.4223 98.4077C85.7421 93.5498 82.0267 89.6609 77.3159 86.8008L73.1641 93.6391C76.6667 95.7657 79.4046 98.6235 81.4177 102.272L88.4223 98.4077ZM77.3713 86.8351C72.7118 83.9013 67.4117 82.48 61.6 82.48V90.48C66.0549 90.48 69.8482 91.552 73.1087 93.6049L77.3713 86.8351ZM61.6 82.48C55.7867 82.48 50.4397 83.9014 45.6641 86.8008L49.8159 93.6391C53.2537 91.5519 57.1466 90.48 61.6 90.48V82.48ZM45.7554 86.747C40.981 89.4753 37.1823 93.3873 34.3599 98.3679L41.3201 102.312C43.4844 98.4927 46.2856 95.6581 49.7246 93.693L45.7554 86.747ZM34.3377 98.4077C31.6192 103.335 30.32 108.931 30.32 115.08H38.32C38.32 110.082 39.3675 105.852 41.3423 102.272L34.3377 98.4077ZM30.32 115.08C30.32 121.102 31.6277 126.62 34.3377 131.532L41.3423 127.668C39.359 124.073 38.32 119.911 38.32 115.08H30.32ZM34.3892 131.623C37.2088 136.433 40.9752 140.292 45.6641 143.139L49.8159 136.301C46.2915 134.161 43.4578 131.274 41.2908 127.577L34.3892 131.623ZM45.8077 143.222C50.6689 145.904 55.9562 147.24 61.6 147.24V139.24C57.2704 139.24 53.3178 138.229 49.6723 136.218L45.8077 143.222ZM102.3 164.98C98.456 164.98 96.452 164.331 95.5568 163.711L91.0032 170.289C93.9213 172.309 97.9306 172.98 102.3 172.98V164.98ZM95.7188 163.83C94.8003 163.123 93.9296 161.848 93.4694 159.432L85.6106 160.928C86.3237 164.672 87.9463 167.944 90.8412 170.17L95.7188 163.83ZM93.54 160.18V24.66H85.54V160.18H93.54ZM93.54 24.66C93.54 22.3148 93.6785 20.3253 93.9335 18.6682L86.0265 17.4518C85.6948 19.608 85.54 22.0185 85.54 24.66H93.54ZM93.8912 18.8981C94.1111 17.8718 94.5986 17.1483 95.4988 16.5482L91.0612 9.89179C88.4414 11.6383 86.7289 14.1415 86.0688 17.2219L93.8912 18.8981ZM95.5568 16.5088C96.4695 15.8769 98.4197 15.24 102.08 15.24V7.24C97.8203 7.24 93.9038 7.92308 91.0032 9.93121L95.5568 16.5088ZM102.08 15.24C106.202 15.24 108.169 15.8532 108.881 16.3282L113.319 9.67179C110.511 7.80016 106.465 7.24 102.08 7.24V15.24ZM108.881 16.3282C109.781 16.9283 110.269 17.6518 110.489 18.6781L118.311 17.0019C117.651 13.9215 115.939 11.4183 113.319 9.67179L108.881 16.3282ZM110.577 19.0163C111.021 20.4606 111.28 22.2503 111.28 24.44H119.28C119.28 21.643 118.952 19.0327 118.223 16.6636L110.577 19.0163ZM111.28 24.44V155.56H119.28V24.44H111.28ZM111.28 155.56C111.28 157.822 111.08 159.81 110.709 161.542L118.531 163.218C119.04 160.844 119.28 158.284 119.28 155.56H111.28ZM110.709 161.542C110.514 162.451 110.049 163.17 109.004 163.813L113.196 170.627C115.965 168.923 117.846 166.416 118.531 163.218L110.709 161.542ZM108.881 163.892C108.154 164.377 106.24 164.98 102.3 164.98V172.98C106.573 172.98 110.526 172.41 113.319 170.548L108.881 163.892ZM147.663 167.22L149.94 163.931L149.851 163.87L149.759 163.813L147.663 167.22ZM144.143 162.6L140.232 163.438L140.238 163.469L140.245 163.499L144.143 162.6ZM144.143 67.56L140.297 66.4611L140.269 66.5602L140.245 66.6606L144.143 67.56ZM147.663 62.72L145.567 59.3134L145.505 59.3515L145.444 59.3918L147.663 62.72ZM165.483 62.72L163.264 66.0482L163.325 66.0885L163.387 66.1266L165.483 62.72ZM169.003 162.82L172.901 163.719L172.908 163.689L172.914 163.658L169.003 162.82ZM165.483 167.44L163.387 164.033L163.325 164.071L163.264 164.112L165.483 167.44ZM147.003 37.86L144.726 41.1488L144.868 41.2472L145.018 41.333L147.003 37.86ZM143.263 32.58L139.341 33.3645L139.365 33.4885L139.398 33.6107L143.263 32.58ZM143.263 18.06L139.417 16.9611L139.38 17.0904L139.352 17.2219L143.263 18.06ZM147.223 13.22L149.208 16.693L149.298 16.6412L149.386 16.5847L147.223 13.22ZM166.143 13.22L168.42 9.93122L168.42 9.93121L166.143 13.22ZM169.883 18.5L166.018 19.5306L166.027 19.5648L166.037 19.5989L169.883 18.5ZM169.883 32.8L166.018 31.7693L166.018 31.7693L169.883 32.8ZM166.143 37.86L168.239 41.2666L168.239 41.2666L166.143 37.86ZM156.463 165.2C152.803 165.2 150.852 164.563 149.94 163.931L145.386 170.509C148.287 172.517 152.203 173.2 156.463 173.2V165.2ZM149.759 163.813C148.621 163.113 148.205 162.411 148.041 161.701L140.245 163.499C140.961 166.602 142.891 168.98 145.567 170.627L149.759 163.813ZM148.054 161.762C147.683 160.03 147.483 158.042 147.483 155.78H139.483C139.483 158.504 139.723 161.064 140.232 163.438L148.054 161.762ZM147.483 155.78V73.94H139.483V155.78H147.483ZM147.483 73.94C147.483 71.8382 147.68 70.0196 148.041 68.4594L140.245 66.6606C139.725 68.9137 139.483 71.3485 139.483 73.94H147.483ZM147.989 68.6589C148.318 67.5086 148.92 66.6895 149.882 66.0482L145.444 59.3918C142.886 61.0971 141.142 63.5047 140.297 66.4611L147.989 68.6589ZM149.759 66.1266C150.701 65.547 152.789 64.96 156.683 64.96V56.96C152.364 56.96 148.438 57.5463 145.567 59.3134L149.759 66.1266ZM156.683 64.96C160.623 64.96 162.537 65.5635 163.264 66.0482L167.702 59.3918C164.909 57.5299 160.956 56.96 156.683 56.96V64.96ZM163.387 66.1266C164.432 66.7697 164.897 67.4892 165.092 68.3981L172.914 66.7219C172.229 63.5242 170.348 61.0169 167.579 59.3134L163.387 66.1266ZM165.092 68.3981C165.463 70.1304 165.663 72.1176 165.663 74.38H173.663C173.663 71.6557 173.423 69.0962 172.914 66.7219L165.092 68.3981ZM165.663 74.38V156H173.663V74.38H165.663ZM165.663 156C165.663 158.262 165.463 160.25 165.092 161.982L172.914 163.658C173.423 161.284 173.663 158.724 173.663 156H165.663ZM165.105 161.921C164.941 162.631 164.525 163.333 163.387 164.033L167.579 170.847C170.255 169.2 172.185 166.822 172.901 163.719L165.105 161.921ZM163.264 164.112C162.552 164.587 160.584 165.2 156.463 165.2V173.2C160.848 173.2 164.894 172.64 167.702 170.768L163.264 164.112ZM156.463 35.62C152.429 35.62 150.126 35.0376 148.988 34.387L145.018 41.333C147.987 43.0291 151.99 43.62 156.463 43.62V35.62ZM149.28 34.5712C148.138 33.7807 147.465 32.8136 147.128 31.5493L139.398 33.6107C140.234 36.7464 142.055 39.2993 144.726 41.1488L149.28 34.5712ZM147.185 31.7955C146.805 29.8943 146.603 27.7414 146.603 25.32H138.603C138.603 28.1786 138.841 30.8656 139.341 33.3645L147.185 31.7955ZM146.603 25.32C146.603 22.7296 146.809 20.6034 147.174 18.8981L139.352 17.2219C138.837 19.6233 138.603 22.3371 138.603 25.32H146.603ZM147.109 19.1589C147.377 18.2215 147.954 17.409 149.208 16.693L145.238 9.74702C142.385 11.3776 140.322 13.7918 139.417 16.9611L147.109 19.1589ZM149.386 16.5847C150.474 15.8855 152.697 15.24 156.683 15.24V7.24C152.163 7.24 148.079 7.91447 145.06 9.85527L149.386 16.5847ZM156.683 15.24C160.891 15.24 163.002 15.9108 163.866 16.5088L168.42 9.93121C165.47 7.88915 161.275 7.24 156.683 7.24V15.24ZM163.866 16.5088C165.008 17.2993 165.681 18.2664 166.018 19.5306L173.748 17.4694C172.912 14.3336 171.091 11.7807 168.42 9.93122L163.866 16.5088ZM166.037 19.5989C166.496 21.2053 166.763 23.2386 166.763 25.76H174.763C174.763 22.708 174.443 19.9014 173.729 17.4011L166.037 19.5989ZM166.763 25.76C166.763 27.9381 166.507 29.9358 166.018 31.7693L173.748 33.8307C174.432 31.2642 174.763 28.5686 174.763 25.76H166.763ZM166.018 31.7693C165.69 32.999 165.065 33.8266 164.047 34.4534L168.239 41.2666C171.034 39.5467 172.902 37.001 173.748 33.8306L166.018 31.7693ZM164.047 34.4534C163.146 35.0076 160.891 35.62 156.463 35.62V43.62C161.129 43.62 165.327 43.0591 168.239 41.2666L164.047 34.4534ZM239.491 168.1L237.702 171.678L237.702 171.678L239.491 168.1ZM234.651 163.04L231.041 164.764L231.057 164.797L231.073 164.829L234.651 163.04ZM194.611 79.22L198.22 77.4959L198.204 77.4634L198.188 77.4311L194.611 79.22ZM200.771 61.62L202.51 65.2222L202.535 65.2101L202.559 65.1977L200.771 61.62ZM211.331 59.42L210.26 63.2741L210.26 63.2741L211.331 59.42ZM218.371 67.56L222.05 65.9901L222.043 65.9734L222.035 65.9567L218.371 67.56ZM247.191 135.1L243.512 136.67L247.183 145.273L250.867 136.676L247.191 135.1ZM275.571 68.88L279.247 70.4557L279.25 70.4489L279.253 70.4422L275.571 68.88ZM282.611 59.86L284.235 63.5152L284.318 63.4783L284.399 63.4377L282.611 59.86ZM294.051 61.62L295.839 58.0423L295.839 58.0423L294.051 61.62ZM301.971 69.98L297.989 70.3592L297.99 70.3686L297.99 70.378L301.971 69.98ZM299.551 80.1L295.973 78.3111L295.959 78.3398L295.945 78.3688L299.551 80.1ZM259.731 163.04L263.26 164.922L263.3 164.848L263.337 164.771L259.731 163.04ZM254.891 167.88L253.102 164.302L253.002 164.352L252.906 164.407L254.891 167.88ZM247.191 165.64C244.529 165.64 242.621 165.193 241.279 164.522L237.702 171.678C240.467 173.06 243.692 173.64 247.191 173.64V165.64ZM241.279 164.522C240.108 163.937 239.072 162.939 238.228 161.251L231.073 164.829C232.576 167.834 234.766 170.21 237.702 171.678L241.279 164.522ZM238.26 161.316L198.22 77.4959L191.001 80.9441L231.041 164.764L238.26 161.316ZM198.188 77.4311C196.143 73.3399 196.178 71.1396 196.579 70.1098L189.123 67.2102C187.47 71.4604 188.679 76.3001 191.033 81.0089L198.188 77.4311ZM196.579 70.1098C197.06 68.8714 198.599 67.1103 202.51 65.2222L199.032 58.0178C194.436 60.2364 190.694 63.1686 189.123 67.2102L196.579 70.1098ZM202.559 65.1977C206.709 63.1232 209.089 62.9487 210.26 63.2741L212.401 55.5659C208.293 54.4246 203.633 55.7168 198.982 58.0423L202.559 65.1977ZM210.26 63.2741C211.052 63.494 212.747 64.6845 214.706 69.1633L222.035 65.9567C219.888 61.0489 216.889 56.8126 212.401 55.5659L210.26 63.2741ZM214.692 69.1299L243.512 136.67L250.87 133.53L222.05 65.9901L214.692 69.1299ZM250.867 136.676L279.247 70.4557L271.894 67.3043L243.514 133.524L250.867 136.676ZM279.253 70.4422C281.202 65.847 283.032 64.05 284.235 63.5152L280.986 56.2047C276.909 58.0166 274.046 62.233 271.888 67.3178L279.253 70.4422ZM284.399 63.4377C285.226 63.0242 287.466 62.7999 292.262 65.1977L295.839 58.0423C290.662 55.4534 285.275 54.0558 280.822 56.2823L284.399 63.4377ZM292.262 65.1977C296.991 67.5623 297.904 69.468 297.989 70.3592L305.953 69.6008C305.451 64.332 301.084 60.6644 295.839 58.0423L292.262 65.1977ZM297.99 70.378C298.182 72.2943 297.684 74.8885 295.973 78.3111L303.128 81.8889C305.23 77.6849 306.346 73.5323 305.951 69.582L297.99 70.378ZM295.945 78.3688L256.125 161.309L263.337 164.771L303.157 81.8312L295.945 78.3688ZM256.201 161.158C255.383 162.692 254.349 163.679 253.102 164.302L256.679 171.458C259.539 170.028 261.732 167.788 263.26 164.922L256.201 161.158ZM252.906 164.407C251.613 165.146 249.779 165.64 247.191 165.64V173.64C250.762 173.64 254.061 172.961 256.875 171.353L252.906 164.407ZM344.322 165.9L342.719 169.565L342.733 169.571L342.747 169.577L344.322 165.9ZM326.502 153.36L323.477 155.977L323.515 156.02L323.554 156.063L326.502 153.36ZM315.722 135.32L311.944 136.634L311.962 136.684L311.98 136.734L315.722 135.32ZM339.482 66.9L337.575 63.3839L337.563 63.3907L337.55 63.3977L339.482 66.9ZM390.082 63.6L391.614 59.905L391.614 59.905L390.082 63.6ZM405.042 73.5L402.163 76.2765L402.213 76.3289L402.266 76.3794L405.042 73.5ZM414.282 86.7L410.6 88.2622L410.62 88.309L410.641 88.3552L414.282 86.7ZM411.862 117.72L409.149 114.781L409.12 114.807L409.092 114.834L411.862 117.72ZM339.922 123V119H335.803L335.924 123.118L339.922 123ZM344.542 135.98L341.419 138.479L341.449 138.516L341.48 138.553L344.542 135.98ZM355.982 144.56L354.336 148.205L354.406 148.237L354.477 148.266L355.982 144.56ZM379.962 146.76L379.369 142.804L379.354 142.807L379.339 142.809L379.962 146.76ZM387.442 145.22L388.541 149.066L388.666 149.031L388.788 148.987L387.442 145.22ZM392.722 143.02L391.067 139.379L391 139.409L390.934 139.442L392.722 143.02ZM400.862 139.94L400.5 135.956L400.433 135.963L400.366 135.971L400.862 139.94ZM405.702 141.04L403.787 144.552L403.787 144.552L405.702 141.04ZM409.662 145.66L406.038 147.352L406.125 147.54L406.232 147.718L409.662 145.66ZM411.422 149.84L407.518 150.708L407.578 150.982L407.677 151.244L411.422 149.84ZM406.802 161.72L409.114 164.984L409.159 164.953L409.202 164.92L406.802 161.72ZM391.842 167.88L390.872 163.999L390.82 164.013L390.767 164.027L391.842 167.88ZM339.922 107.38H335.922V111.38H339.922V107.38ZM390.742 106.28L392.685 109.777L392.826 109.698L392.961 109.608L390.742 106.28ZM389.642 91.98L386.422 94.3528L386.453 94.3947L386.485 94.4358L389.642 91.98ZM381.282 85.6L379.616 89.2363L379.679 89.2654L379.744 89.2923L381.282 85.6ZM354.222 86.48L355.914 90.1047L355.963 90.0819L356.011 90.0577L354.222 86.48ZM343.662 95.06L340.416 92.7228L340.385 92.7664L340.355 92.8108L343.662 95.06ZM369.402 166.52C360.295 166.52 352.49 165.049 345.898 162.223L342.747 169.577C350.528 172.911 359.443 174.52 369.402 174.52V166.52ZM345.926 162.235C339.358 159.362 333.888 155.497 329.451 150.657L323.554 156.063C328.797 161.783 335.206 166.278 342.719 169.565L345.926 162.235ZM329.528 150.743C325.137 145.666 321.789 140.059 319.464 133.906L311.98 136.734C314.643 143.781 318.481 150.2 323.477 155.977L329.528 150.743ZM319.5 134.006C317.302 127.684 316.202 121.162 316.202 114.42H308.202C308.202 122.051 309.45 129.462 311.944 136.634L319.5 134.006ZM316.202 114.42C316.202 104.495 318.469 95.8241 322.909 88.2908L316.016 84.2292C310.775 93.1226 308.202 103.225 308.202 114.42H316.202ZM322.909 88.2908C327.378 80.7069 333.523 74.7565 341.415 70.4023L337.55 63.3977C328.429 68.4302 321.227 75.3864 316.016 84.2292L322.909 88.2908ZM341.389 70.4161C349.383 66.0804 358.612 63.86 369.182 63.86V55.86C357.459 55.86 346.888 58.333 337.575 63.3839L341.389 70.4161ZM369.182 63.86C376.688 63.86 383.116 65.0415 388.55 67.295L391.614 59.905C385.022 57.1718 377.517 55.86 369.182 55.86V63.86ZM388.55 67.295C394.128 69.6075 398.634 72.6173 402.163 76.2765L407.922 70.7235C403.53 66.1694 398.064 62.5792 391.614 59.905L388.55 67.295ZM402.266 76.3794C406.018 79.9978 408.774 83.9586 410.6 88.2622L417.965 85.1378C415.684 79.7614 412.28 74.9222 407.819 70.6206L402.266 76.3794ZM410.641 88.3552C412.644 92.7626 413.582 96.893 413.582 100.78H421.582C421.582 95.5737 420.32 90.3173 417.924 85.0448L410.641 88.3552ZM413.582 100.78C413.582 107.993 411.807 112.327 409.149 114.781L414.575 120.659C419.544 116.073 421.582 109.113 421.582 100.78H413.582ZM409.092 114.834C406.246 117.567 402.652 119 398.002 119V127C404.499 127 410.146 124.913 414.632 120.606L409.092 114.834ZM398.002 119H339.922V127H398.002V119ZM335.924 123.118C336.095 128.914 337.908 134.091 341.419 138.479L347.666 133.481C345.31 130.536 344.043 127.059 343.921 122.882L335.924 123.118ZM341.48 138.553C344.962 142.698 349.266 145.916 354.336 148.205L357.629 140.915C353.605 139.097 350.283 136.595 347.605 133.407L341.48 138.553ZM354.477 148.266C359.626 150.358 364.902 151.42 370.282 151.42V143.42C365.982 143.42 361.726 142.576 357.488 140.854L354.477 148.266ZM370.282 151.42C374.1 151.42 377.543 151.192 380.586 150.711L379.339 142.809C376.809 143.208 373.798 143.42 370.282 143.42V151.42ZM380.556 150.716C383.599 150.259 386.272 149.714 388.541 149.066L386.343 141.374C384.506 141.899 382.192 142.381 379.369 142.804L380.556 150.716ZM388.788 148.987C390.947 148.216 392.863 147.422 394.511 146.598L390.934 139.442C389.649 140.085 388.045 140.757 386.097 141.453L388.788 148.987ZM394.378 146.661C395.983 145.932 397.439 145.276 398.747 144.695L395.498 137.385C394.166 137.977 392.688 138.642 391.067 139.379L394.378 146.661ZM398.747 144.695C399.785 144.234 400.65 143.998 401.358 143.909L400.366 135.971C398.728 136.176 397.1 136.673 395.498 137.385L398.747 144.695ZM401.225 143.924C401.946 143.858 402.773 143.998 403.787 144.552L407.618 137.528C405.405 136.322 403.006 135.729 400.5 135.956L401.225 143.924ZM403.787 144.552C404.443 144.909 405.257 145.678 406.038 147.352L413.287 143.968C412.015 141.242 410.189 138.931 407.618 137.528L403.787 144.552ZM406.232 147.718C406.947 148.909 407.338 149.902 407.518 150.708L415.327 148.972C414.92 147.138 414.138 145.344 413.092 143.602L406.232 147.718ZM407.677 151.244C407.96 151.999 408.082 152.698 408.082 153.36H416.082C416.082 151.675 415.765 150.027 415.168 148.436L407.677 151.244ZM408.082 153.36C408.082 154.5 407.437 156.244 404.402 158.52L409.202 164.92C413.208 161.916 416.082 158.087 416.082 153.36H408.082ZM404.49 158.456C401.534 160.55 397.077 162.448 390.872 163.999L392.813 171.761C399.514 170.085 405.031 167.877 409.114 164.984L404.49 158.456ZM390.767 164.027C384.902 165.664 377.801 166.52 369.402 166.52V174.52C378.31 174.52 386.169 173.616 392.918 171.733L390.767 164.027ZM339.922 111.38H385.022V103.38H339.922V111.38ZM385.022 111.38C387.803 111.38 390.502 110.989 392.685 109.777L388.8 102.783C388.342 103.037 387.229 103.38 385.022 103.38V111.38ZM392.961 109.608C395.977 107.598 396.722 104.078 396.722 101H388.722C388.722 102.02 388.59 102.606 388.482 102.896C388.391 103.139 388.364 103.058 388.524 102.952L392.961 109.608ZM396.722 101C396.722 96.7455 395.404 92.8729 392.8 89.5242L386.485 94.4358C387.987 96.3671 388.722 98.5078 388.722 101H396.722ZM392.863 89.6072C390.336 86.178 386.941 83.6242 382.821 81.9077L379.744 89.2923C382.664 90.5091 384.842 92.2087 386.422 94.3528L392.863 89.6072ZM382.949 81.9637C378.807 80.0654 374.111 79.18 368.962 79.18V87.18C373.2 87.18 376.718 87.9079 379.616 89.2363L382.949 81.9637ZM368.962 79.18C362.98 79.18 357.444 80.3969 352.434 82.9023L356.011 90.0577C359.8 88.1631 364.092 87.18 368.962 87.18V79.18ZM352.531 82.8553C347.559 85.1755 343.486 88.4599 340.416 92.7228L346.908 97.3972C349.119 94.3268 352.086 91.8911 355.914 90.1047L352.531 82.8553ZM340.355 92.8108C337.398 97.1585 335.922 102.053 335.922 107.38H343.922C343.922 103.614 344.94 100.295 346.97 97.3092L340.355 92.8108ZM444.216 167.22L446.493 163.931L446.464 163.911L446.435 163.892L444.216 167.22ZM440.916 162.38L437.005 163.218L437.005 163.218L440.916 162.38ZM440.916 67.12L444.814 68.0194L444.821 67.9888L444.827 67.9581L440.916 67.12ZM444.216 62.5L446.232 65.9551L446.272 65.9313L446.312 65.9066L444.216 62.5ZM461.816 62.28L459.801 65.7351L459.86 65.7695L459.92 65.8019L461.816 62.28ZM465.336 66.24L461.477 67.2925L461.537 67.5132L461.622 67.7256L465.336 66.24ZM466.216 70.64L469.871 72.2645L470.216 71.4889V70.64H466.216ZM464.456 74.6L460.801 72.9754L467.848 76.72L464.456 74.6ZM467.536 70.42L470.632 72.9529L470.685 72.8876L470.736 72.82L467.536 70.42ZM472.816 65.36L475.182 68.5856L475.249 68.5359L475.315 68.4835L472.816 65.36ZM480.736 61.18L482.001 64.9747L482.081 64.948L482.16 64.9179L480.736 61.18ZM497.236 60.08L496.337 63.9776L496.502 64.0158L496.67 64.0398L497.236 60.08ZM503.176 61.62L501.74 65.3534L501.906 65.4172L502.077 65.4661L503.176 61.62ZM512.416 67.78L508.986 69.838L509.035 69.9196L509.088 69.9988L512.416 67.78ZM497.016 88.46L498.592 84.7834L498.592 84.7834L497.016 88.46ZM494.376 86.92L491.548 89.7484L491.704 89.9051L491.877 90.0435L494.376 86.92ZM491.516 85.38L490.112 89.1253L490.181 89.1513L490.251 89.1747L491.516 85.38ZM478.976 85.82L477.783 82.0021L477.747 82.0133L477.711 82.0253L478.976 85.82ZM472.816 89.12L475.255 92.2905L475.255 92.2905L472.816 89.12ZM468.196 94.84L471.726 96.7224L471.75 96.6759L471.774 96.6289L468.196 94.84ZM465.776 162.82L469.674 163.719L469.681 163.689L469.687 163.658L465.776 162.82ZM462.256 167.44L464.352 170.847L464.352 170.847L462.256 167.44ZM453.016 165.2C449.356 165.2 447.406 164.563 446.493 163.931L441.939 170.509C444.84 172.517 448.756 173.2 453.016 173.2V165.2ZM446.435 163.892C445.535 163.292 445.047 162.568 444.827 161.542L437.005 163.218C437.665 166.299 439.377 168.802 441.997 170.548L446.435 163.892ZM444.827 161.542C444.456 159.81 444.256 157.822 444.256 155.56H436.256C436.256 158.284 436.496 160.844 437.005 163.218L444.827 161.542ZM444.256 155.56V73.94H436.256V155.56H444.256ZM444.256 73.94C444.256 71.5051 444.461 69.5492 444.814 68.0194L437.019 66.2206C436.492 68.5041 436.256 71.0949 436.256 73.94H444.256ZM444.827 67.9581C445.04 66.9667 445.477 66.3955 446.232 65.9551L442.201 59.0449C439.436 60.6579 437.672 63.1667 437.005 66.2819L444.827 67.9581ZM446.312 65.9066C447.254 65.327 449.342 64.74 453.236 64.74V56.74C448.917 56.74 444.991 57.3263 442.12 59.0934L446.312 65.9066ZM453.236 64.74C457.041 64.74 458.998 65.2672 459.801 65.7351L463.832 58.8249C461.114 57.2395 457.351 56.74 453.236 56.74V64.74ZM459.92 65.8019C461.161 66.4702 461.404 67.0249 461.477 67.2925L469.195 65.1875C468.388 62.2285 466.285 60.1431 463.713 58.7581L459.92 65.8019ZM461.622 67.7256C462.035 68.7564 462.216 69.7203 462.216 70.64H470.216C470.216 68.6264 469.811 66.6569 469.05 64.7544L461.622 67.7256ZM462.561 69.0154L460.801 72.9754L468.111 76.2245L469.871 72.2645L462.561 69.0154ZM467.848 76.72C468.459 75.7428 469.371 74.4936 470.632 72.9529L464.44 67.887C463.061 69.573 461.92 71.1105 461.064 72.48L467.848 76.72ZM470.736 72.82C471.771 71.4396 473.226 70.0197 475.182 68.5856L470.451 62.1344C468.006 63.927 465.941 65.8803 464.336 68.02L470.736 72.82ZM475.315 68.4835C477.095 67.0595 479.302 65.8746 482.001 64.9747L479.471 57.3853C476.011 58.5388 472.937 60.1405 470.317 62.2365L475.315 68.4835ZM482.16 64.9179C484.675 63.96 487.835 63.42 491.736 63.42V55.42C487.131 55.42 482.958 56.0533 479.312 57.442L482.16 64.9179ZM491.736 63.42C493.162 63.42 494.693 63.5982 496.337 63.9776L498.136 56.1824C495.966 55.6818 493.83 55.42 491.736 55.42V63.42ZM496.67 64.0398C498.431 64.2913 500.118 64.7296 501.74 65.3534L504.612 57.8866C502.42 57.0437 500.148 56.4554 497.802 56.1202L496.67 64.0398ZM502.077 65.4661C503.803 65.9591 505.276 66.6173 506.529 67.4146L510.824 60.6653C508.85 59.4093 506.656 58.4542 504.275 57.7739L502.077 65.4661ZM506.529 67.4146C507.681 68.1477 508.462 68.9639 508.986 69.838L515.846 65.722C514.611 63.6628 512.898 61.9856 510.824 60.6653L506.529 67.4146ZM509.088 69.9988C509.483 70.5908 509.736 71.3399 509.736 72.4H517.736C517.736 69.9401 517.11 67.6092 515.744 65.5612L509.088 69.9988ZM509.736 72.4C509.736 76.4017 508.747 79.4989 506.981 81.9273L513.451 86.6327C516.378 82.6077 517.736 77.785 517.736 72.4H509.736ZM506.981 81.9273C505.188 84.393 503.498 85.12 501.856 85.12V93.12C506.667 93.12 510.551 90.6203 513.451 86.6327L506.981 81.9273ZM501.856 85.12C499.774 85.12 498.84 84.89 498.592 84.7834L495.44 92.1366C497.245 92.91 499.538 93.12 501.856 93.12V85.12ZM498.592 84.7834C497.836 84.4594 497.28 84.1203 496.875 83.7965L491.877 90.0435C492.939 90.893 494.143 91.5806 495.44 92.1366L498.592 84.7834ZM497.205 84.0916C495.977 82.864 494.341 82.1053 492.781 81.5853L490.251 89.1747C490.751 89.3414 491.098 89.4947 491.325 89.6169C491.557 89.7419 491.599 89.7995 491.548 89.7484L497.205 84.0916ZM492.921 81.6347C491.029 80.9254 488.504 80.72 485.796 80.72V88.72C488.368 88.72 489.656 88.9546 490.112 89.1253L492.921 81.6347ZM485.796 80.72C483.147 80.72 480.471 81.1621 477.783 82.0021L480.169 89.6379C482.174 89.0113 484.045 88.72 485.796 88.72V80.72ZM477.711 82.0253C475.072 82.905 472.624 84.221 470.377 85.9495L475.255 92.2905C476.821 91.0857 478.48 90.2017 480.241 89.6147L477.711 82.0253ZM470.377 85.9495C467.949 87.8173 466.037 90.2136 464.618 93.0511L471.774 96.6289C472.702 94.7731 473.87 93.3561 475.255 92.2905L470.377 85.9495ZM464.667 92.9576C463.134 95.8313 462.436 99.066 462.436 102.54H470.436C470.436 100.147 470.911 98.2487 471.726 96.7224L464.667 92.9576ZM462.436 102.54V156H470.436V102.54H462.436ZM462.436 156C462.436 158.262 462.236 160.25 461.865 161.982L469.687 163.658C470.196 161.284 470.436 158.724 470.436 156H462.436ZM461.879 161.921C461.715 162.631 461.298 163.333 460.16 164.033L464.352 170.847C467.028 169.2 468.958 166.822 469.674 163.719L461.879 161.921ZM460.16 164.033C459.233 164.604 457.089 165.2 453.016 165.2V173.2C457.45 173.2 461.466 172.623 464.352 170.847L460.16 164.033ZM555.679 169.2L556.489 165.283L556.424 165.269L556.358 165.258L555.679 169.2ZM543.359 165.9L541.85 169.604L541.909 169.629L541.969 169.651L543.359 165.9ZM533.019 160.4L530.54 163.54L530.631 163.611L530.725 163.677L533.019 160.4ZM527.739 153.14L531.593 152.069L531.534 151.858L531.453 151.654L527.739 153.14ZM527.079 148.96L531.054 149.402L531.057 149.38L531.059 149.358L527.079 148.96ZM528.399 144.56L531.976 146.349L532.01 146.283L532.04 146.215L528.399 144.56ZM531.699 139.72L534.659 142.411L534.729 142.334L534.795 142.253L531.699 139.72ZM535.659 137.08L536.1 141.056L536.273 141.036L536.443 141.002L535.659 137.08ZM541.159 138.4L539.276 141.929L539.493 142.045L539.723 142.133L541.159 138.4ZM547.319 141.26L545.436 144.789L545.483 144.814L545.53 144.838L547.319 141.26ZM554.359 144.78L552.57 148.358L552.612 148.379L552.656 148.399L554.359 144.78ZM561.839 147.64L560.71 151.477L560.739 151.486L560.768 151.494L561.839 147.64ZM582.519 146.1L584.434 149.612L584.495 149.579L584.554 149.544L582.519 146.1ZM585.819 133.12L589.096 130.826L589.096 130.826L585.819 133.12ZM581.639 129.6L579.491 132.975L579.665 133.085L579.85 133.178L581.639 129.6ZM575.699 126.96L574.213 130.674L574.357 130.732L574.506 130.778L575.699 126.96ZM568.439 124.76L567.31 128.597L567.439 128.636L567.571 128.665L568.439 124.76ZM560.519 122.34L561.723 118.526L561.661 118.506L561.597 118.488L560.519 122.34ZM549.519 118.6L551.004 114.886L551.004 114.886L549.519 118.6ZM539.619 112.88L537.042 115.94L537.081 115.972L537.12 116.003L539.619 112.88ZM534.779 74.16L531.483 71.8939L531.475 71.9052L531.467 71.9166L534.779 74.16ZM548.639 63.38L550.171 67.075L550.171 67.075L548.639 63.38ZM578.779 60.3L578.121 64.2456L578.138 64.2484L578.155 64.251L578.779 60.3ZM586.699 62.28L585.367 66.052L585.496 66.0975L585.628 66.1341L586.699 62.28ZM594.179 65.14L592.39 68.7177L592.432 68.739L592.476 68.7593L594.179 65.14ZM601.219 69.1L599 72.4282L599.129 72.5142L599.264 72.59L601.219 69.1ZM606.939 76.36L602.944 76.5702L602.945 76.5819L606.939 76.36ZM603.859 84.94L607.004 87.4113L607.061 87.3394L607.114 87.2649L603.859 84.94ZM599.019 89.34L600.674 92.9815L600.806 92.9213L600.934 92.8516L599.019 89.34ZM593.959 89.34L592.17 92.9177L592.293 92.9793L592.42 93.0323L593.959 89.34ZM586.259 85.6L584.316 89.0966L584.429 89.1595L584.546 89.215L586.259 85.6ZM577.899 81.86L576.516 85.6134L576.547 85.6246L576.577 85.6354L577.899 81.86ZM561.179 81.64L562.583 85.3853L562.583 85.3853L561.179 81.64ZM555.899 85.38L559.134 87.7327L559.134 87.7327L555.899 85.38ZM555.899 96.16L558.888 93.5025L558.888 93.5025L555.899 96.16ZM560.519 99.46L558.843 103.092L558.843 103.092L560.519 99.46ZM567.339 101.88L566.268 105.734L566.369 105.762L566.471 105.785L567.339 101.88ZM575.699 103.64L576.537 99.7288L576.51 99.723L576.483 99.7177L575.699 103.64ZM599.899 112.44L597.68 115.768L597.711 115.789L597.743 115.809L599.899 112.44ZM608.699 121.9L605.202 123.843L605.218 123.871L605.234 123.899L608.699 121.9ZM600.119 161.72L597.738 158.506L597.723 158.516L597.709 158.527L600.119 161.72ZM567.779 166.52C564.272 166.52 560.512 166.115 556.489 165.283L554.868 173.117C559.352 174.045 563.659 174.52 567.779 174.52V166.52ZM556.358 165.258C552.342 164.566 548.473 163.529 544.748 162.149L541.969 169.651C546.165 171.205 550.509 172.368 554.999 173.142L556.358 165.258ZM544.868 162.196C541.133 160.674 537.959 158.976 535.313 157.123L530.725 163.677C533.945 165.931 537.664 167.899 541.85 169.604L544.868 162.196ZM535.497 157.26C533.18 155.431 532.04 153.679 531.593 152.069L523.885 154.211C524.904 157.881 527.284 160.969 530.54 163.54L535.497 157.26ZM531.453 151.654C531.064 150.683 530.993 149.954 531.054 149.402L523.103 148.518C522.871 150.606 523.24 152.663 524.025 154.626L531.453 151.654ZM531.059 149.358C531.152 148.427 531.436 147.429 531.976 146.349L524.821 142.771C523.894 144.624 523.299 146.56 523.099 148.562L531.059 149.358ZM532.04 146.215C532.567 145.056 533.41 143.784 534.659 142.411L528.739 137.029C527.055 138.882 525.697 140.837 524.757 142.905L532.04 146.215ZM534.795 142.253C535.277 141.663 535.653 141.341 535.898 141.178C536.128 141.024 536.188 141.046 536.1 141.056L535.217 133.104C532.399 133.418 530.22 135.21 528.603 137.187L534.795 142.253ZM536.443 141.002C536.569 140.977 537.392 140.924 539.276 141.929L543.041 134.871C540.526 133.529 537.682 132.596 534.874 133.158L536.443 141.002ZM539.723 142.133C541.448 142.797 543.351 143.677 545.436 144.789L549.201 137.731C546.887 136.496 544.683 135.47 542.595 134.667L539.723 142.133ZM545.53 144.838C547.877 146.011 550.223 147.184 552.57 148.358L556.148 141.202C553.801 140.029 551.454 138.856 549.108 137.682L545.53 144.838ZM552.656 148.399C555.323 149.655 558.009 150.683 560.71 151.477L562.967 143.803C560.682 143.13 558.381 142.252 556.062 141.161L552.656 148.399ZM560.768 151.494C563.723 152.315 566.65 152.74 569.539 152.74V144.74C567.441 144.74 565.235 144.432 562.909 143.786L560.768 151.494ZM569.539 152.74C575.339 152.74 580.406 151.809 584.434 149.612L580.603 142.588C578.178 143.911 574.592 144.74 569.539 144.74V152.74ZM584.554 149.544C588.835 147.014 591.359 143.147 591.359 138.18H583.359C583.359 139.959 582.655 141.373 580.484 142.656L584.554 149.544ZM591.359 138.18C591.359 135.509 590.624 133.01 589.096 130.826L582.542 135.414C583.067 136.163 583.359 137.038 583.359 138.18H591.359ZM589.096 130.826C587.651 128.762 585.722 127.17 583.428 126.022L579.85 133.178C581.075 133.79 581.934 134.545 582.542 135.414L589.096 130.826ZM583.786 126.225C581.805 124.965 579.484 123.952 576.892 123.142L574.506 130.778C576.607 131.434 578.246 132.182 579.491 132.975L583.786 126.225ZM577.184 123.246C574.758 122.276 572.128 121.482 569.306 120.855L567.571 128.665C570.029 129.211 572.239 129.884 574.213 130.674L577.184 123.246ZM569.567 120.923C567.102 120.198 564.488 119.399 561.723 118.526L559.314 126.154C562.123 127.041 564.789 127.856 567.31 128.597L569.567 120.923ZM561.597 118.488C558.074 117.502 554.543 116.301 551.004 114.886L548.033 122.314C551.828 123.832 555.631 125.125 559.44 126.192L561.597 118.488ZM551.004 114.886C547.684 113.558 544.729 111.845 542.118 109.757L537.12 116.003C540.376 118.608 544.02 120.709 548.033 122.314L551.004 114.886ZM542.195 109.82C539.858 107.852 537.913 105.363 536.376 102.291L529.221 105.869C531.205 109.837 533.806 113.215 537.042 115.94L542.195 109.82ZM536.376 102.291C534.972 99.483 534.159 95.7414 534.159 90.88H526.159C526.159 96.5786 527.105 101.637 529.221 105.869L536.376 102.291ZM534.159 90.88C534.159 84.9158 535.543 80.164 538.09 76.4034L531.467 71.9166C527.855 77.2493 526.159 83.6442 526.159 90.88H534.159ZM538.075 76.4261C540.804 72.4569 544.766 69.3158 550.171 67.075L547.107 59.685C540.484 62.4308 535.207 66.4764 531.483 71.8939L538.075 76.4261ZM550.171 67.075C555.574 64.8345 562.284 63.64 570.419 63.64V55.64C561.54 55.64 553.73 56.9389 547.107 59.685L550.171 67.075ZM570.419 63.64C573.153 63.64 575.718 63.845 578.121 64.2456L579.436 56.3544C576.559 55.8749 573.552 55.64 570.419 55.64V63.64ZM578.155 64.251C580.717 64.6556 583.119 65.2583 585.367 66.052L588.03 58.508C585.292 57.5417 582.414 56.8244 579.403 56.3489L578.155 64.251ZM585.628 66.1341C588.031 66.8016 590.283 67.6643 592.39 68.7177L595.968 61.5623C593.381 60.269 590.646 59.225 587.769 58.4259L585.628 66.1341ZM592.476 68.7593C594.798 69.852 596.971 71.0757 599 72.4282L603.438 65.7718C601.066 64.191 598.547 62.7747 595.882 61.5207L592.476 68.7593ZM599.264 72.59C602.38 74.3349 602.902 75.7596 602.944 76.5702L610.933 76.1498C610.683 71.3871 607.391 67.9717 603.173 65.61L599.264 72.59ZM602.945 76.5819C603.023 77.9935 602.498 79.9636 600.604 82.615L607.114 87.2649C609.62 83.7564 611.148 80.0065 610.933 76.1381L602.945 76.5819ZM600.713 82.4687C599.305 84.2617 598.085 85.2932 597.103 85.8284L600.934 92.8516C603.18 91.6268 605.186 89.725 607.004 87.4113L600.713 82.4687ZM597.364 85.6985C596.844 85.9346 596.319 85.99 595.497 85.6477L592.42 93.0323C595.119 94.1566 597.967 94.2121 600.674 92.9815L597.364 85.6985ZM595.748 85.7623C593.372 84.5743 590.779 83.3151 587.971 81.985L584.546 89.215C587.312 90.5248 589.853 91.759 592.17 92.9177L595.748 85.7623ZM588.201 82.1034C585.357 80.5231 582.362 79.1842 579.22 78.0846L576.577 85.6354C579.302 86.5892 581.881 87.7435 584.316 89.0966L588.201 82.1034ZM579.282 78.1066C576.036 76.9108 572.633 76.32 569.099 76.32V84.32C571.725 84.32 574.188 84.7559 576.516 85.6134L579.282 78.1066ZM569.099 76.32C565.766 76.32 562.639 76.8202 559.774 77.8947L562.583 85.3853C564.411 84.6998 566.565 84.32 569.099 84.32V76.32ZM559.774 77.8947C556.882 78.9793 554.403 80.6358 552.664 83.0273L559.134 87.7327C559.741 86.8975 560.782 86.0607 562.583 85.3853L559.774 77.8947ZM552.664 83.0273C550.942 85.3947 550.139 88.146 550.139 91.1H558.139C558.139 89.654 558.509 88.592 559.134 87.7327L552.664 83.0273ZM550.139 91.1C550.139 93.9638 550.981 96.6479 552.909 98.8174L558.888 93.5025C558.47 93.032 558.139 92.3429 558.139 91.1H550.139ZM552.909 98.8174C554.511 100.619 556.529 102.024 558.843 103.092L562.195 95.8282C560.696 95.1361 559.633 94.3405 558.888 93.5025L552.909 98.8174ZM558.843 103.092C560.993 104.084 563.479 104.959 566.268 105.734L568.409 98.0259C565.918 97.3339 563.858 96.5955 562.195 95.8282L558.843 103.092ZM566.471 105.785C569.141 106.378 571.956 106.971 574.914 107.562L576.483 99.7177C573.575 99.136 570.816 98.5552 568.206 97.9753L566.471 105.785ZM574.861 107.551C578.843 108.405 582.907 109.474 587.053 110.76L589.424 103.12C585.063 101.766 580.767 100.635 576.537 99.7288L574.861 107.551ZM587.053 110.76C590.96 111.973 594.495 113.645 597.68 115.768L602.118 109.112C598.262 106.541 594.025 104.547 589.424 103.12L587.053 110.76ZM597.743 115.809C600.828 117.784 603.31 120.437 605.202 123.843L612.195 119.957C609.687 115.443 606.303 111.789 602.055 109.071L597.743 115.809ZM605.234 123.899C606.971 126.909 607.999 131.136 607.999 136.86H615.999C615.999 130.264 614.827 124.517 612.163 119.901L605.234 123.899ZM607.999 136.86C607.999 146.426 604.542 153.466 597.738 158.506L602.5 164.934C611.536 158.241 615.999 148.707 615.999 136.86H607.999ZM597.709 158.527C590.866 163.692 581.047 166.52 567.779 166.52V174.52C582.084 174.52 593.825 171.482 602.528 164.913L597.709 158.527ZM640.815 167.22L643.092 163.931L643.004 163.87L642.912 163.813L640.815 167.22ZM637.295 162.6L633.384 163.438L633.391 163.469L633.398 163.499L637.295 162.6ZM637.295 67.56L633.449 66.4611L633.421 66.5602L633.398 66.6606L637.295 67.56ZM640.815 62.72L638.719 59.3134L638.657 59.3515L638.597 59.3918L640.815 62.72ZM658.635 62.72L656.417 66.0482L656.477 66.0885L656.539 66.1266L658.635 62.72ZM662.155 162.82L666.053 163.719L666.06 163.689L666.067 163.658L662.155 162.82ZM658.635 167.44L656.539 164.033L656.477 164.071L656.417 164.112L658.635 167.44ZM640.155 37.86L637.878 41.1488L638.021 41.2472L638.171 41.333L640.155 37.86ZM636.415 32.58L632.493 33.3645L632.518 33.4885L632.55 33.6107L636.415 32.58ZM636.415 18.06L632.569 16.9611L632.532 17.0904L632.504 17.2219L636.415 18.06ZM640.375 13.22L642.36 16.693L642.451 16.6412L642.538 16.5847L640.375 13.22ZM659.295 13.22L661.572 9.93122L661.572 9.93121L659.295 13.22ZM663.035 18.5L659.17 19.5306L659.18 19.5648L659.189 19.5989L663.035 18.5ZM663.035 32.8L659.17 31.7693L659.17 31.7693L663.035 32.8ZM659.295 37.86L661.392 41.2666L661.392 41.2666L659.295 37.86ZM649.615 165.2C645.955 165.2 644.005 164.563 643.092 163.931L638.538 170.509C641.439 172.517 645.356 173.2 649.615 173.2V165.2ZM642.912 163.813C641.774 163.113 641.357 162.411 641.193 161.701L633.398 163.499C634.114 166.602 636.044 168.98 638.719 170.627L642.912 163.813ZM641.207 161.762C640.835 160.03 640.635 158.042 640.635 155.78H632.635C632.635 158.504 632.875 161.064 633.384 163.438L641.207 161.762ZM640.635 155.78V73.94H632.635V155.78H640.635ZM640.635 73.94C640.635 71.8382 640.833 70.0196 641.193 68.4594L633.398 66.6606C632.878 68.9137 632.635 71.3485 632.635 73.94H640.635ZM641.141 68.6589C641.47 67.5086 642.072 66.6895 643.034 66.0482L638.597 59.3918C636.039 61.0971 634.294 63.5047 633.449 66.4611L641.141 68.6589ZM642.912 66.1266C643.854 65.547 645.941 64.96 649.835 64.96V56.96C645.516 56.96 641.59 57.5463 638.719 59.3134L642.912 66.1266ZM649.835 64.96C653.776 64.96 655.689 65.5635 656.417 66.0482L660.854 59.3918C658.061 57.5299 654.108 56.96 649.835 56.96V64.96ZM656.539 66.1266C657.584 66.7697 658.049 67.4892 658.244 68.3981L666.067 66.7219C665.381 63.5242 663.5 61.0169 660.732 59.3134L656.539 66.1266ZM658.244 68.3981C658.615 70.1304 658.815 72.1176 658.815 74.38H666.815C666.815 71.6557 666.575 69.0962 666.067 66.7219L658.244 68.3981ZM658.815 74.38V156H666.815V74.38H658.815ZM658.815 156C658.815 158.262 658.615 160.25 658.244 161.982L666.067 163.658C666.575 161.284 666.815 158.724 666.815 156H658.815ZM658.258 161.921C658.094 162.631 657.677 163.333 656.539 164.033L660.732 170.847C663.407 169.2 665.337 166.822 666.053 163.719L658.258 161.921ZM656.417 164.112C655.704 164.587 653.737 165.2 649.615 165.2V173.2C654 173.2 658.047 172.64 660.854 170.768L656.417 164.112ZM649.615 35.62C645.582 35.62 643.278 35.0376 642.14 34.387L638.171 41.333C641.139 43.0291 645.142 43.62 649.615 43.62V35.62ZM642.432 34.5712C641.29 33.7807 640.617 32.8136 640.28 31.5493L632.55 33.6107C633.387 36.7464 635.207 39.2993 637.878 41.1488L642.432 34.5712ZM640.338 31.7955C639.957 29.8943 639.755 27.7414 639.755 25.32H631.755C631.755 28.1786 631.993 30.8656 632.493 33.3645L640.338 31.7955ZM639.755 25.32C639.755 22.7296 639.961 20.6034 640.327 18.8981L632.504 17.2219C631.99 19.6233 631.755 22.3371 631.755 25.32H639.755ZM640.261 19.1589C640.529 18.2215 641.107 17.409 642.36 16.693L638.391 9.74702C635.537 11.3776 633.475 13.7918 632.569 16.9611L640.261 19.1589ZM642.538 16.5847C643.626 15.8855 645.849 15.24 649.835 15.24V7.24C645.315 7.24 641.231 7.91447 638.212 9.85527L642.538 16.5847ZM649.835 15.24C654.043 15.24 656.155 15.9108 657.019 16.5088L661.572 9.93121C658.623 7.88915 654.428 7.24 649.835 7.24V15.24ZM657.018 16.5088C658.16 17.2993 658.833 18.2664 659.17 19.5306L666.9 17.4694C666.064 14.3336 664.244 11.7807 661.572 9.93122L657.018 16.5088ZM659.189 19.5989C659.648 21.2053 659.915 23.2386 659.915 25.76H667.915C667.915 22.708 667.596 19.9014 666.881 17.4011L659.189 19.5989ZM659.915 25.76C659.915 27.9381 659.659 29.9358 659.17 31.7693L666.9 33.8307C667.585 31.2642 667.915 28.5686 667.915 25.76H659.915ZM659.17 31.7693C658.843 32.999 658.217 33.8266 657.199 34.4534L661.392 41.2666C664.187 39.5467 666.055 37.001 666.9 33.8306L659.17 31.7693ZM657.199 34.4534C656.298 35.0076 654.043 35.62 649.615 35.62V43.62C654.281 43.62 658.479 43.0591 661.392 41.2666L657.199 34.4534ZM705.21 167.44L702.991 170.768L703.052 170.809L703.114 170.847L705.21 167.44ZM701.91 162.6L697.988 163.384L697.993 163.411L697.999 163.438L701.91 162.6ZM703.45 33.9L707.257 35.128L707.262 35.1106L707.268 35.0931L703.45 33.9ZM723.03 13.88L724.423 17.6297L724.469 17.6124L724.516 17.5939L723.03 13.88ZM748.33 11.68L747.154 15.5031L747.321 15.5546L747.492 15.5912L748.33 11.68ZM753.17 14.98L749.842 17.1988L749.903 17.2912L749.97 17.38L753.17 14.98ZM753.17 32.8L749.881 30.5232L749.82 30.6118L749.763 30.7036L753.17 32.8ZM748.33 36.32L747.492 32.4088L747.492 32.4088L748.33 36.32ZM734.91 37.42L735.242 41.4062L735.381 41.3946L735.518 41.3735L734.91 37.42ZM730.51 38.74L728.39 35.348L728.285 35.4134L728.185 35.4851L730.51 38.74ZM728.09 42.26L724.331 40.893L724.274 41.0482L724.231 41.2075L728.09 42.26ZM726.55 162.82L722.704 161.721L722.676 161.82L722.652 161.921L726.55 162.82ZM723.03 167.44L720.934 164.033L720.934 164.033L723.03 167.44ZM692.23 62.94L692.269 58.9402L692.249 58.94H692.23V62.94ZM714.89 63.16L714.851 67.1598L714.929 67.1606L715.006 67.1583L714.89 63.16ZM745.25 62.28V58.28H745.192L745.134 58.2817L745.25 62.28ZM751.85 63.16L750.674 66.9831L750.841 67.0346L751.012 67.0712L751.85 63.16ZM756.69 66.68L753.283 68.7764L753.321 68.8383L753.362 68.8988L756.69 66.68ZM756.69 84.06L760.097 86.1564L760.097 86.1564L756.69 84.06ZM752.07 87.8L752.969 91.6976L753.109 91.6653L753.246 91.6231L752.07 87.8ZM745.47 88.46L745.41 92.4595L745.44 92.46H745.47V88.46ZM715.99 88.02L716.05 84.0204L716.002 84.0197L715.954 84.0202L715.99 88.02ZM691.57 88.24L691.41 92.2368L691.508 92.2407L691.606 92.2398L691.57 88.24ZM683.87 85.16L680.505 87.323L680.597 87.465L680.699 87.5988L683.87 85.16ZM684.31 66.02L681.273 63.4168L681.265 63.4265L681.256 63.4362L684.31 66.02ZM714.01 165.2C710.296 165.2 708.264 164.623 707.306 164.033L703.114 170.847C705.969 172.604 709.804 173.2 714.01 173.2V165.2ZM707.429 164.112C706.529 163.512 706.041 162.788 705.821 161.762L697.999 163.438C698.659 166.519 700.371 169.022 702.991 170.768L707.429 164.112ZM705.832 161.816C705.446 159.885 705.25 157.875 705.25 155.78H697.25C697.25 158.378 697.494 160.915 697.988 163.384L705.832 161.816ZM705.25 155.78V48.86H697.25V155.78H705.25ZM705.25 48.86C705.25 43.7945 705.934 39.2281 707.257 35.128L699.643 32.672C698.032 37.6652 697.25 43.0722 697.25 48.86H705.25ZM707.268 35.0931C708.561 30.9559 710.603 27.469 713.381 24.5649L707.599 19.0351C703.924 22.8777 701.273 27.4574 699.632 32.7069L707.268 35.0931ZM713.381 24.5649C716.122 21.6984 719.759 19.3619 724.423 17.6297L721.637 10.1303C716.034 12.2114 711.311 15.1549 707.599 19.0351L713.381 24.5649ZM724.516 17.5939C729.05 15.7802 734.749 14.8 741.73 14.8V6.79999C734.045 6.79999 727.277 7.8731 721.544 10.1661L724.516 17.5939ZM741.73 14.8C743.92 14.8 745.709 15.0587 747.154 15.5031L749.506 7.85688C747.137 7.12793 744.527 6.79999 741.73 6.79999V14.8ZM747.492 15.5912C748.518 15.8111 749.242 16.2986 749.842 17.1988L756.498 12.7612C754.752 10.1414 752.248 8.42887 749.168 7.76878L747.492 15.5912ZM749.97 17.38C750.471 18.0485 751.15 19.9251 751.15 24H759.15C759.15 19.5682 758.509 15.4315 756.37 12.58L749.97 17.38ZM751.15 24C751.15 27.6603 750.513 29.6105 749.881 30.5232L756.459 35.0768C758.467 32.1762 759.15 28.2597 759.15 24H751.15ZM749.763 30.7036C749.12 31.7487 748.401 32.214 747.492 32.4088L749.168 40.2312C752.366 39.546 754.873 37.6647 756.577 34.8964L749.763 30.7036ZM747.492 32.4088C745.76 32.78 743.772 32.98 741.51 32.98V40.98C744.234 40.98 746.794 40.74 749.168 40.2312L747.492 32.4088ZM741.51 32.98C738.869 32.98 736.458 33.1348 734.302 33.4665L735.518 41.3735C737.175 41.1185 739.165 40.98 741.51 40.98V32.98ZM734.578 33.4338C732.354 33.6192 730.232 34.1968 728.39 35.348L732.63 42.132C733.135 41.8166 733.946 41.5142 735.242 41.4062L734.578 33.4338ZM728.185 35.4851C726.302 36.8303 725.097 38.7874 724.331 40.893L731.849 43.627C732.257 42.506 732.665 42.1164 732.835 41.9949L728.185 35.4851ZM724.231 41.2075C723.664 43.2873 723.43 45.7271 723.43 48.42H731.43C731.43 46.1262 731.636 44.4593 731.949 43.3125L724.231 41.2075ZM723.43 48.42V156.22H731.43V48.42H723.43ZM723.43 156.22C723.43 158.231 723.179 160.059 722.704 161.721L730.396 163.919C731.094 161.475 731.43 158.902 731.43 156.22H723.43ZM722.652 161.921C722.488 162.631 722.072 163.333 720.934 164.033L725.126 170.847C727.802 169.2 729.732 166.822 730.448 163.719L722.652 161.921ZM720.934 164.033C719.992 164.613 717.904 165.2 714.01 165.2V173.2C718.329 173.2 722.255 172.614 725.126 170.847L720.934 164.033ZM692.191 66.9398L714.851 67.1598L714.929 59.1602L692.269 58.9402L692.191 66.9398ZM715.006 67.1583L745.366 66.2783L745.134 58.2817L714.774 59.1617L715.006 67.1583ZM745.25 66.28C747.44 66.28 749.229 66.5387 750.674 66.9831L753.026 59.3369C750.657 58.6079 748.047 58.28 745.25 58.28V66.28ZM751.012 67.0712C751.921 67.266 752.64 67.7313 753.283 68.7764L760.097 64.5836C758.393 61.8153 755.886 59.934 752.688 59.2488L751.012 67.0712ZM753.362 68.8988C753.847 69.6259 754.45 71.5397 754.45 75.48H762.45C762.45 71.2069 761.88 67.2541 760.018 64.4612L753.362 68.8988ZM754.45 75.48C754.45 79.013 753.883 80.989 753.283 81.9636L760.097 86.1564C761.844 83.3176 762.45 79.5736 762.45 75.48H754.45ZM753.283 81.9636C752.552 83.1513 751.757 83.7112 750.894 83.9769L753.246 91.6231C756.196 90.7154 758.481 88.782 760.097 86.1564L753.283 81.9636ZM751.171 83.9024C749.626 84.2588 747.739 84.46 745.47 84.46V92.46C748.188 92.46 750.7 92.2212 752.969 91.6976L751.171 83.9024ZM745.53 84.4604L716.05 84.0204L715.93 92.0195L745.41 92.4595L745.53 84.4604ZM715.954 84.0202L691.534 84.2402L691.606 92.2398L716.026 92.0198L715.954 84.0202ZM691.73 84.2432C688.619 84.1188 687.472 83.2827 687.04 82.7212L680.699 87.5988C683.201 90.8506 687.188 92.0679 691.41 92.2368L691.73 84.2432ZM687.235 82.997C686.555 81.939 685.89 79.6034 685.89 75.26H677.89C677.89 80.0099 678.545 84.2743 680.505 87.323L687.235 82.997ZM685.89 75.26C685.89 71.3442 686.664 69.4304 687.364 68.6038L681.256 63.4362C678.729 66.423 677.89 70.6691 677.89 75.26H685.89ZM687.347 68.6232C688.132 67.707 689.501 66.94 692.23 66.94V58.94C687.919 58.94 684.008 60.2263 681.273 63.4168L687.347 68.6232ZM784.322 167.22L786.599 163.931L786.511 163.87L786.419 163.813L784.322 167.22ZM780.802 162.6L776.891 163.438L776.898 163.469L776.905 163.499L780.802 162.6ZM780.802 67.56L776.956 66.4611L776.928 66.5602L776.905 66.6606L780.802 67.56ZM784.322 62.72L782.226 59.3134L782.164 59.3515L782.104 59.3918L784.322 62.72ZM802.142 62.72L799.924 66.0482L799.984 66.0885L800.046 66.1266L802.142 62.72ZM805.662 162.82L809.56 163.719L809.567 163.689L809.574 163.658L805.662 162.82ZM802.142 167.44L800.046 164.033L799.984 164.071L799.924 164.112L802.142 167.44ZM783.662 37.86L781.386 41.1488L781.528 41.2472L781.678 41.333L783.662 37.86ZM779.922 32.58L776 33.3645L776.025 33.4885L776.057 33.6107L779.922 32.58ZM779.922 18.06L776.076 16.9611L776.039 17.0904L776.011 17.2219L779.922 18.06ZM783.882 13.22L785.867 16.693L785.958 16.6412L786.045 16.5847L783.882 13.22ZM802.802 13.22L805.079 9.93122L805.079 9.93121L802.802 13.22ZM806.542 18.5L802.677 19.5306L802.687 19.5648L802.696 19.5989L806.542 18.5ZM806.542 32.8L802.677 31.7693L802.677 31.7693L806.542 32.8ZM802.802 37.86L804.899 41.2666L804.899 41.2666L802.802 37.86ZM793.122 165.2C789.462 165.2 787.512 164.563 786.599 163.931L782.046 170.509C784.946 172.517 788.863 173.2 793.122 173.2V165.2ZM786.419 163.813C785.281 163.113 784.864 162.411 784.7 161.701L776.905 163.499C777.621 166.602 779.551 168.98 782.226 170.627L786.419 163.813ZM784.714 161.762C784.342 160.03 784.142 158.042 784.142 155.78H776.142C776.142 158.504 776.382 161.064 776.891 163.438L784.714 161.762ZM784.142 155.78V73.94H776.142V155.78H784.142ZM784.142 73.94C784.142 71.8382 784.34 70.0196 784.7 68.4594L776.905 66.6606C776.385 68.9137 776.142 71.3485 776.142 73.94H784.142ZM784.648 68.6589C784.977 67.5086 785.579 66.6895 786.541 66.0482L782.104 59.3918C779.546 61.0971 777.801 63.5047 776.956 66.4611L784.648 68.6589ZM786.419 66.1266C787.361 65.547 789.448 64.96 793.342 64.96V56.96C789.023 56.96 785.097 57.5463 782.226 59.3134L786.419 66.1266ZM793.342 64.96C797.283 64.96 799.196 65.5635 799.924 66.0482L804.361 59.3918C801.568 57.5299 797.615 56.96 793.342 56.96V64.96ZM800.046 66.1266C801.091 66.7697 801.556 67.4892 801.751 68.3981L809.574 66.7219C808.888 63.5242 807.007 61.0169 804.239 59.3134L800.046 66.1266ZM801.751 68.3981C802.122 70.1304 802.322 72.1176 802.322 74.38H810.322C810.322 71.6557 810.082 69.0962 809.574 66.7219L801.751 68.3981ZM802.322 74.38V156H810.322V74.38H802.322ZM802.322 156C802.322 158.262 802.122 160.25 801.751 161.982L809.574 163.658C810.082 161.284 810.322 158.724 810.322 156H802.322ZM801.765 161.921C801.601 162.631 801.184 163.333 800.046 164.033L804.239 170.847C806.914 169.2 808.844 166.822 809.56 163.719L801.765 161.921ZM799.924 164.112C799.211 164.587 797.244 165.2 793.122 165.2V173.2C797.508 173.2 801.554 172.64 804.361 170.768L799.924 164.112ZM793.122 35.62C789.089 35.62 786.785 35.0376 785.647 34.387L781.678 41.333C784.646 43.0291 788.649 43.62 793.122 43.62V35.62ZM785.939 34.5712C784.797 33.7807 784.124 32.8136 783.787 31.5493L776.057 33.6107C776.894 36.7464 778.714 39.2993 781.386 41.1488L785.939 34.5712ZM783.845 31.7955C783.464 29.8943 783.262 27.7414 783.262 25.32H775.262C775.262 28.1786 775.5 30.8656 776 33.3645L783.845 31.7955ZM783.262 25.32C783.262 22.7296 783.468 20.6034 783.834 18.8981L776.011 17.2219C775.497 19.6233 775.262 22.3371 775.262 25.32H783.262ZM783.768 19.1589C784.036 18.2215 784.614 17.409 785.867 16.693L781.898 9.74702C779.044 11.3776 776.982 13.7918 776.076 16.9611L783.768 19.1589ZM786.045 16.5847C787.133 15.8855 789.356 15.24 793.342 15.24V7.24C788.822 7.24 784.738 7.91447 781.719 9.85527L786.045 16.5847ZM793.342 15.24C797.55 15.24 799.662 15.9108 800.526 16.5088L805.079 9.93121C802.13 7.88915 797.935 7.24 793.342 7.24V15.24ZM800.526 16.5088C801.667 17.2993 802.34 18.2664 802.677 19.5306L810.407 17.4694C809.571 14.3336 807.751 11.7807 805.079 9.93122L800.526 16.5088ZM802.696 19.5989C803.155 21.2053 803.422 23.2386 803.422 25.76H811.422C811.422 22.708 811.103 19.9014 810.388 17.4011L802.696 19.5989ZM803.422 25.76C803.422 27.9381 803.166 29.9358 802.677 31.7693L810.407 33.8307C811.092 31.2642 811.422 28.5686 811.422 25.76H803.422ZM802.677 31.7693C802.35 32.999 801.724 33.8266 800.706 34.4534L804.899 41.2666C807.694 39.5467 809.562 37.001 810.407 33.8306L802.677 31.7693ZM800.706 34.4534C799.805 35.0076 797.55 35.62 793.122 35.62V43.62C797.788 43.62 801.986 43.0591 804.899 41.2666L800.706 34.4534Z" fill="black" mask="url(#path-1-outside-1_136_2)"/>
</svg>
